  0
SECTION
  2
HEADER
  9
$ACADVER
  1
AC1009
  9
$INSBASE
 10
0.0
 20
0.0
 30
0.0
  9
$EXTMIN
 10
0.0
 20
0.0
 30
0.0
  9
$EXTMAX
 10
0.0
 20
0.0
 30
0.0
  0
ENDSEC
  0
SECTION
  2
TABLES
  0
TABLE
  2
VPORT
 70
1
  0
VPORT
  2
*ACTIVE
 70
0
 10
0.0
 20
0.0
 11
1.0
 21
1.0
 12
-5.0
 22
1.0
 13
0.0
 23
0.0
 14
0.1
 24
0.1
 15
0.1
 25
0.1
 16
0.0
 26
0.0
 36
1.0
 17
0.0
 27
0.0
 37
0.0
 40
10.0
 41
1.0
 42
50.0
 43
0.0
 44
0.0
 50
0.0
 51
0.0
 71
0
 72
100
 73
1
 74
1
 75
0
 76
0
 77
0
 78
0
  0
ENDTAB
  0
TABLE
  2
LTYPE
 70
8
  0
LTYPE
  2
CONTINUOUS
 70
0
  3
Solid line
 72
65
 73
0
 40
0.0
  0
LTYPE
  2
DOT
 70
0
  3
. . . . . . .
 72
65
 73
2
 40
0.25
 49
0.0
 49
-0.25
  0
LTYPE
  2
DASHED
 70
0
  3
__ __ __ __ __
 72
65
 73
2
 40
0.8
 49
0.5
 49
-0.3
  0
LTYPE
  2
DASHDOT
 70
0
  3
__ . __ . __ .
 72
65
 73
4
 40
1.0
 49
0.5
 49
-0.25
 49
0.0
 49
-0.25
  0
LTYPE
  2
DIVIDE
 70
0
  3
____ . . ____ . . 
 72
65
 73
6
 40
1.25
 49
0.5
 49
-0.25
 49
0.0
 49
-0.25
 49
0.0
 49
-0.25
  0
LTYPE
  2
BORDER
 70
0
  3
__ __ . __ __ . 
 72
65
 73
6
 40
1.75
 49
0.5
 49
-0.25
 49
0.5
 49
-0.25
 49
0.0
 49
-0.25
  0
LTYPE
  2
HIDDEN
 70
0
  3
__ __ __ __ __
 72
65
 73
2
 40
0.4
 49
0.25
 49
-0.25
  0
LTYPE
  2
CENTER
 70
0
  3
____ _ ____ _ __
 72
65
 73
4
 40
2.0
 49
1.25
 49
-0.25
 49
0.25
 49
-0.25
  0
ENDTAB
  0
TABLE
  2
LAYER
 70
1
  0
LAYER
  2
PYDXF
 70
64
 62
7
  6
continuous
  0
ENDTAB
  0
TABLE
  2
STYLE
 70
1
  0
STYLE
  2
STANDARD
 70
0
 40
0
 41
1.0
 50
0.0
 71
0
 42
1
 3
ARIAL.TTF
 4

  0
ENDTAB
  0
TABLE
  2
VIEW
 70
1
  0
VIEW
  2
BF_TOPVIEW
 70
0
 40
120.0
 10
0.0
 20
0.0
 41
200.0
 11
0.0
 21
0.0
 31
1.0
 12
0.0
 22
0.0
 32
0.0
 42
50.0
 43
0.0
 44
0.0
 50
0.0
 71
0
  0
ENDTAB
  0
ENDSEC
  0
SECTION
  2
BLOCKS
  0
ENDSEC
  0
SECTION
  2
ENTITIES
  0
LINE
  8
0
 10
25.59564971923828
 20
-17.78845977783203
 30
-95.20728302001953
 11
22.474205017089844
 21
-18.095895767211914
 31
-95.20728302001953
  0
LINE
  8
0
 10
22.474205017089844
 20
-18.095895767211914
 30
-95.20728302001953
 11
19.472713470458984
 21
-19.00638771057129
 31
-95.20728302001953
  0
LINE
  8
0
 10
19.472713470458984
 20
-19.00638771057129
 30
-95.20728302001953
 11
16.706525802612305
 21
-20.484947204589844
 31
-95.20728302001953
  0
LINE
  8
0
 10
16.706525802612305
 20
-20.484947204589844
 30
-95.20728302001953
 11
14.281941413879395
 21
-22.474750518798828
 31
-95.20728302001953
  0
LINE
  8
0
 10
14.281941413879395
 20
-22.474750518798828
 30
-95.20728302001953
 11
12.292135238647461
 21
-24.899337768554688
 31
-95.20728302001953
  0
LINE
  8
0
 10
12.292135238647461
 20
-24.899337768554688
 30
-95.20728302001953
 11
10.813577651977539
 21
-27.665525436401367
 31
-95.20728302001953
  0
LINE
  8
0
 10
10.813577651977539
 20
-27.665525436401367
 30
-95.20728302001953
 11
9.903085708618164
 21
-30.667015075683594
 31
-95.20728302001953
  0
LINE
  8
0
 10
9.903085708618164
 20
-30.667015075683594
 30
-95.20728302001953
 11
9.595649719238281
 21
-33.78845977783203
 31
-95.20728302001953
  0
LINE
  8
0
 10
9.595649719238281
 20
-33.78845977783203
 30
-95.20728302001953
 11
9.903084754943848
 21
-36.90990447998047
 31
-95.20728302001953
  0
LINE
  8
0
 10
9.903084754943848
 20
-36.90990447998047
 30
-95.20728302001953
 11
10.813576698303223
 21
-39.91139221191406
 31
-95.20728302001953
  0
LINE
  8
0
 10
10.813576698303223
 20
-39.91139221191406
 30
-95.20728302001953
 11
12.292135238647461
 21
-42.677581787109375
 31
-95.20728302001953
  0
LINE
  8
0
 10
12.292135238647461
 20
-42.677581787109375
 30
-95.20728302001953
 11
14.281941413879395
 21
-45.102169036865234
 31
-95.20728302001953
  0
LINE
  8
0
 10
14.281941413879395
 20
-45.102169036865234
 30
-95.20728302001953
 11
16.706527709960938
 21
-47.09197235107422
 31
-95.20728302001953
  0
LINE
  8
0
 10
16.706527709960938
 20
-47.09197235107422
 30
-95.20728302001953
 11
19.47271728515625
 21
-48.570533752441406
 31
-95.20728302001953
  0
LINE
  8
0
 10
19.47271728515625
 20
-48.570533752441406
 30
-95.20728302001953
 11
22.47420883178711
 21
-49.48102569580078
 31
-95.20728302001953
  0
LINE
  8
0
 10
22.47420883178711
 20
-49.48102569580078
 30
-95.20728302001953
 11
25.59565544128418
 21
-49.78845977783203
 31
-95.20728302001953
  0
LINE
  8
0
 10
25.59565544128418
 20
-49.78845977783203
 30
-95.20728302001953
 11
28.71710205078125
 21
-49.481021881103516
 31
-95.20728302001953
  0
LINE
  8
0
 10
28.71710205078125
 20
-49.481021881103516
 30
-95.20728302001953
 11
31.718591690063477
 21
-48.57052993774414
 31
-95.20728302001953
  0
LINE
  8
0
 10
31.718591690063477
 20
-48.57052993774414
 30
-95.20728302001953
 11
34.484779357910156
 21
-47.09196853637695
 31
-95.20728302001953
  0
LINE
  8
0
 10
34.484779357910156
 20
-47.09196853637695
 30
-95.20728302001953
 11
36.909366607666016
 21
-45.1021614074707
 31
-95.20728302001953
  0
LINE
  8
0
 10
36.909366607666016
 20
-45.1021614074707
 30
-95.20728302001953
 11
38.899169921875
 21
-42.677574157714844
 31
-95.20728302001953
  0
LINE
  8
0
 10
38.899169921875
 20
-42.677574157714844
 30
-95.20728302001953
 11
40.37772750854492
 21
-39.91138458251953
 31
-95.20728302001953
  0
LINE
  8
0
 10
40.37772750854492
 20
-39.91138458251953
 30
-95.20728302001953
 11
41.28821563720703
 21
-36.909889221191406
 31
-95.20728302001953
  0
LINE
  8
0
 10
41.28821563720703
 20
-36.909889221191406
 30
-95.20728302001953
 11
41.59564971923828
 21
-33.78844451904297
 31
-95.20728302001953
  0
LINE
  8
0
 10
41.59564971923828
 20
-33.78844451904297
 30
-95.20728302001953
 11
41.288211822509766
 21
-30.6669979095459
 31
-95.20728302001953
  0
LINE
  8
0
 10
41.288211822509766
 20
-30.6669979095459
 30
-95.20728302001953
 11
40.377716064453125
 21
-27.665508270263672
 31
-95.20728302001953
  0
LINE
  8
0
 10
40.377716064453125
 20
-27.665508270263672
 30
-95.20728302001953
 11
38.89915466308594
 21
-24.89931869506836
 31
-95.20728302001953
  0
LINE
  8
0
 10
38.89915466308594
 20
-24.89931869506836
 30
-95.20728302001953
 11
36.90934371948242
 21
-22.4747371673584
 31
-95.20728302001953
  0
LINE
  8
0
 10
36.90934371948242
 20
-22.4747371673584
 30
-95.20728302001953
 11
34.48475646972656
 21
-20.484933853149414
 31
-95.20728302001953
  0
LINE
  8
0
 10
34.48475646972656
 20
-20.484933853149414
 30
-95.20728302001953
 11
31.718563079833984
 21
-19.006378173828125
 31
-95.20728302001953
  0
LINE
  8
0
 10
31.718563079833984
 20
-19.006378173828125
 30
-95.20728302001953
 11
28.717071533203125
 21
-18.095890045166016
 31
-95.20728302001953
  0
LINE
  8
0
 10
25.59564971923828
 20
-17.78845977783203
 30
-95.20728302001953
 11
28.717071533203125
 21
-18.095890045166016
 31
-95.20728302001953
  0
ENDSEC
  0
EOF
