solid OpenSCAD_Model
  facet normal 0.998757 0.0498498 0
    outer loop
      vertex 1 0 10
      vertex 0.99503 0.0995674 0
      vertex 0.99503 0.0995674 10
    endloop
  endfacet
  facet normal 0.998757 0.0498498 0
    outer loop
      vertex 0.99503 0.0995674 0
      vertex 1 0 10
      vertex 1 0 0
    endloop
  endfacet
  facet normal -1 0 0
    outer loop
      vertex -0.998756 -0.0498457 0
      vertex -0.998756 0.0498457 10
      vertex -0.998756 0.0498457 0
    endloop
  endfacet
  facet normal -1 -0 0
    outer loop
      vertex -0.998756 0.0498457 10
      vertex -0.998756 -0.0498457 0
      vertex -0.998756 -0.0498457 10
    endloop
  endfacet
  facet normal 0.0249394 0.999689 -0
    outer loop
      vertex 0.0747299 0.997203 0
      vertex -0.02493 0.999689 10
      vertex 0.0747299 0.997203 10
    endloop
  endfacet
  facet normal 0.0249394 0.999689 0
    outer loop
      vertex -0.02493 0.999689 10
      vertex 0.0747299 0.997203 0
      vertex -0.02493 0.999689 0
    endloop
  endfacet
  facet normal 0.0249394 -0.999689 0
    outer loop
      vertex -0.02493 -0.999689 0
      vertex 0.0747299 -0.997203 10
      vertex -0.02493 -0.999689 10
    endloop
  endfacet
  facet normal 0.0249394 -0.999689 0
    outer loop
      vertex 0.0747299 -0.997203 10
      vertex -0.02493 -0.999689 0
      vertex 0.0747299 -0.997203 0
    endloop
  endfacet
  facet normal 0.733053 0.680171 0
    outer loop
      vertex 0.766044 0.642787 10
      vertex 0.698236 0.715866 0
      vertex 0.698236 0.715866 10
    endloop
  endfacet
  facet normal 0.733053 0.680171 0
    outer loop
      vertex 0.698236 0.715866 0
      vertex 0.766044 0.642787 10
      vertex 0.766044 0.642787 0
    endloop
  endfacet
  facet normal -0.698237 0.715867 0
    outer loop
      vertex -0.661685 0.749781 0
      vertex -0.733051 0.680172 10
      vertex -0.661685 0.749781 10
    endloop
  endfacet
  facet normal -0.698237 0.715867 0
    outer loop
      vertex -0.733051 0.680172 10
      vertex -0.661685 0.749781 0
      vertex -0.733051 0.680172 0
    endloop
  endfacet
  facet normal -0.365336 0.930876 0
    outer loop
      vertex -0.318486 0.947927 0
      vertex -0.411286 0.911506 10
      vertex -0.318486 0.947927 10
    endloop
  endfacet
  facet normal -0.365336 0.930876 0
    outer loop
      vertex -0.411286 0.911506 10
      vertex -0.318486 0.947927 0
      vertex -0.411286 0.911506 0
    endloop
  endfacet
  facet normal 0.900971 0.433879 0
    outer loop
      vertex 0.921475 0.388434 10
      vertex 0.878222 0.478253 0
      vertex 0.878222 0.478253 10
    endloop
  endfacet
  facet normal 0.900971 0.433879 0
    outer loop
      vertex 0.878222 0.478253 0
      vertex 0.921475 0.388434 10
      vertex 0.921475 0.388434 0
    endloop
  endfacet
  facet normal 0.85329 0.521437 0
    outer loop
      vertex 0.878222 0.478253 10
      vertex 0.826239 0.563319 0
      vertex 0.826239 0.563319 10
    endloop
  endfacet
  facet normal 0.85329 0.521437 0
    outer loop
      vertex 0.826239 0.563319 0
      vertex 0.878222 0.478253 10
      vertex 0.878222 0.478253 0
    endloop
  endfacet
  facet normal 0.411281 0.911509 -0
    outer loop
      vertex 0.45621 0.889872 0
      vertex 0.36534 0.930873 10
      vertex 0.45621 0.889872 10
    endloop
  endfacet
  facet normal 0.411281 0.911509 0
    outer loop
      vertex 0.36534 0.930873 10
      vertex 0.45621 0.889872 0
      vertex 0.36534 0.930873 0
    endloop
  endfacet
  facet normal 0.583746 0.811937 -0
    outer loop
      vertex 0.623489 0.781831 0
      vertex 0.542545 0.840026 10
      vertex 0.623489 0.781831 10
    endloop
  endfacet
  facet normal 0.583746 0.811937 0
    outer loop
      vertex 0.542545 0.840026 10
      vertex 0.623489 0.781831 0
      vertex 0.542545 0.840026 0
    endloop
  endfacet
  facet normal -0.921476 0.388436 0
    outer loop
      vertex -0.939692 0.34202 0
      vertex -0.900969 0.433884 10
      vertex -0.900969 0.433884 0
    endloop
  endfacet
  facet normal -0.921476 0.388436 0
    outer loop
      vertex -0.900969 0.433884 10
      vertex -0.939692 0.34202 0
      vertex -0.939692 0.34202 10
    endloop
  endfacet
  facet normal -0.173645 0.984808 0
    outer loop
      vertex -0.124343 0.992239 0
      vertex -0.222521 0.974928 10
      vertex -0.124343 0.992239 10
    endloop
  endfacet
  facet normal -0.173645 0.984808 0
    outer loop
      vertex -0.222521 0.974928 10
      vertex -0.124343 0.992239 0
      vertex -0.222521 0.974928 0
    endloop
  endfacet
  facet normal 0.988831 -0.149042 0
    outer loop
      vertex 0.980172 -0.198146 10
      vertex 0.99503 -0.0995674 0
      vertex 0.99503 -0.0995674 10
    endloop
  endfacet
  facet normal 0.988831 -0.149042 0
    outer loop
      vertex 0.99503 -0.0995674 0
      vertex 0.980172 -0.198146 10
      vertex 0.980172 -0.198146 0
    endloop
  endfacet
  facet normal 0.411281 -0.911509 0
    outer loop
      vertex 0.36534 -0.930873 0
      vertex 0.45621 -0.889872 10
      vertex 0.36534 -0.930873 10
    endloop
  endfacet
  facet normal 0.411281 -0.911509 0
    outer loop
      vertex 0.45621 -0.889872 10
      vertex 0.36534 -0.930873 0
      vertex 0.45621 -0.889872 0
    endloop
  endfacet
  facet normal 0.969077 0.24676 0
    outer loop
      vertex 0.980172 0.198146 10
      vertex 0.955572 0.294755 0
      vertex 0.955572 0.294755 10
    endloop
  endfacet
  facet normal 0.969077 0.24676 0
    outer loop
      vertex 0.955572 0.294755 0
      vertex 0.980172 0.198146 10
      vertex 0.980172 0.198146 0
    endloop
  endfacet
  facet normal 0.988831 0.149042 0
    outer loop
      vertex 0.99503 0.0995674 10
      vertex 0.980172 0.198146 0
      vertex 0.980172 0.198146 10
    endloop
  endfacet
  facet normal 0.988831 0.149042 0
    outer loop
      vertex 0.980172 0.198146 0
      vertex 0.99503 0.0995674 10
      vertex 0.99503 0.0995674 0
    endloop
  endfacet
  facet normal 0.939692 0.342022 0
    outer loop
      vertex 0.955572 0.294755 10
      vertex 0.921475 0.388434 0
      vertex 0.921475 0.388434 10
    endloop
  endfacet
  facet normal 0.939692 0.342022 0
    outer loop
      vertex 0.921475 0.388434 0
      vertex 0.955572 0.294755 10
      vertex 0.955572 0.294755 0
    endloop
  endfacet
  facet normal 0.79713 0.603807 0
    outer loop
      vertex 0.826239 0.563319 10
      vertex 0.766044 0.642787 0
      vertex 0.766044 0.642787 10
    endloop
  endfacet
  facet normal 0.79713 0.603807 0
    outer loop
      vertex 0.766044 0.642787 0
      vertex 0.826239 0.563319 10
      vertex 0.826239 0.563319 0
    endloop
  endfacet
  facet normal 0.222521 0.974928 -0
    outer loop
      vertex 0.27084 0.962624 0
      vertex 0.173648 0.984807 10
      vertex 0.27084 0.962624 10
    endloop
  endfacet
  facet normal 0.222521 0.974928 0
    outer loop
      vertex 0.173648 0.984807 10
      vertex 0.27084 0.962624 0
      vertex 0.173648 0.984807 0
    endloop
  endfacet
  facet normal 0.318488 0.947927 -0
    outer loop
      vertex 0.36534 0.930873 0
      vertex 0.27084 0.962624 10
      vertex 0.36534 0.930873 10
    endloop
  endfacet
  facet normal 0.318488 0.947927 0
    outer loop
      vertex 0.27084 0.962624 10
      vertex 0.36534 0.930873 0
      vertex 0.27084 0.962624 0
    endloop
  endfacet
  facet normal 0.124342 0.992239 -0
    outer loop
      vertex 0.173648 0.984807 0
      vertex 0.0747299 0.997203 10
      vertex 0.173648 0.984807 10
    endloop
  endfacet
  facet normal 0.124342 0.992239 0
    outer loop
      vertex 0.0747299 0.997203 10
      vertex 0.173648 0.984807 0
      vertex 0.0747299 0.997203 0
    endloop
  endfacet
  facet normal 0.5 0.866025 -0
    outer loop
      vertex 0.542545 0.840026 0
      vertex 0.45621 0.889872 10
      vertex 0.542545 0.840026 10
    endloop
  endfacet
  facet normal 0.5 0.866025 0
    outer loop
      vertex 0.45621 0.889872 10
      vertex 0.542545 0.840026 0
      vertex 0.45621 0.889872 0
    endloop
  endfacet
  facet normal 0.661686 0.749781 -0
    outer loop
      vertex 0.698236 0.715866 0
      vertex 0.623489 0.781831 10
      vertex 0.698236 0.715866 10
    endloop
  endfacet
  facet normal 0.661686 0.749781 0
    outer loop
      vertex 0.623489 0.781831 10
      vertex 0.698236 0.715866 0
      vertex 0.623489 0.781831 0
    endloop
  endfacet
  facet normal -0.980172 0.198147 0
    outer loop
      vertex -0.988831 0.149042 0
      vertex -0.969077 0.246757 10
      vertex -0.969077 0.246757 0
    endloop
  endfacet
  facet normal -0.980172 0.198147 0
    outer loop
      vertex -0.969077 0.246757 10
      vertex -0.988831 0.149042 0
      vertex -0.988831 0.149042 10
    endloop
  endfacet
  facet normal -0.826239 0.56332 0
    outer loop
      vertex -0.853291 0.521435 0
      vertex -0.797132 0.603804 10
      vertex -0.797132 0.603804 0
    endloop
  endfacet
  facet normal -0.826239 0.56332 0
    outer loop
      vertex -0.797132 0.603804 10
      vertex -0.853291 0.521435 0
      vertex -0.853291 0.521435 10
    endloop
  endfacet
  facet normal -0.766042 0.642791 0
    outer loop
      vertex -0.797132 0.603804 0
      vertex -0.733051 0.680172 10
      vertex -0.733051 0.680172 0
    endloop
  endfacet
  facet normal -0.766042 0.642791 0
    outer loop
      vertex -0.733051 0.680172 10
      vertex -0.797132 0.603804 0
      vertex -0.797132 0.603804 10
    endloop
  endfacet
  facet normal -0.878221 0.478255 0
    outer loop
      vertex -0.900969 0.433884 0
      vertex -0.853291 0.521435 10
      vertex -0.853291 0.521435 0
    endloop
  endfacet
  facet normal -0.878221 0.478255 0
    outer loop
      vertex -0.853291 0.521435 10
      vertex -0.900969 0.433884 0
      vertex -0.900969 0.433884 10
    endloop
  endfacet
  facet normal -0.955574 0.294753 0
    outer loop
      vertex -0.969077 0.246757 0
      vertex -0.939692 0.34202 10
      vertex -0.939692 0.34202 0
    endloop
  endfacet
  facet normal -0.955574 0.294753 0
    outer loop
      vertex -0.939692 0.34202 10
      vertex -0.969077 0.246757 0
      vertex -0.969077 0.246757 10
    endloop
  endfacet
  facet normal -0.995031 0.0995653 0
    outer loop
      vertex -0.998756 0.0498457 0
      vertex -0.988831 0.149042 10
      vertex -0.988831 0.149042 0
    endloop
  endfacet
  facet normal -0.995031 0.0995653 0
    outer loop
      vertex -0.988831 0.149042 10
      vertex -0.998756 0.0498457 0
      vertex -0.998756 0.0498457 10
    endloop
  endfacet
  facet normal 0 0 1
    outer loop
      vertex 0.799999 0 10
      vertex 1 0 10
      vertex 0.99503 0.0995674 10
    endloop
  endfacet
  facet normal 0 0 1
    outer loop
      vertex 0.793936 0.0983105 10
      vertex 0.99503 0.0995674 10
      vertex 0.980172 0.198146 10
    endloop
  endfacet
  facet normal 0 0 1
    outer loop
      vertex 1 0 10
      vertex 0.799999 0 10
      vertex 0.99503 -0.0995674 10
    endloop
  endfacet
  facet normal 0 0 1
    outer loop
      vertex 0.775837 0.19513 10
      vertex 0.980172 0.198146 10
      vertex 0.955572 0.294755 10
    endloop
  endfacet
  facet normal -0 0 1
    outer loop
      vertex 0.793936 -0.0983105 10
      vertex 0.99503 -0.0995674 10
      vertex 0.799999 0 10
    endloop
  endfacet
  facet normal 0 0 1
    outer loop
      vertex 0.745977 0.288993 10
      vertex 0.955572 0.294755 10
      vertex 0.921475 0.388434 10
    endloop
  endfacet
  facet normal 0 0 1
    outer loop
      vertex 0.99503 -0.0995674 10
      vertex 0.793936 -0.0983105 10
      vertex 0.980172 -0.198146 10
    endloop
  endfacet
  facet normal 0 0 1
    outer loop
      vertex 0.704809 0.378474 10
      vertex 0.921475 0.388434 10
      vertex 0.878222 0.478253 10
    endloop
  endfacet
  facet normal -0 0 1
    outer loop
      vertex 0.775837 -0.19513 10
      vertex 0.980172 -0.198146 10
      vertex 0.793936 -0.0983105 10
    endloop
  endfacet
  facet normal 0 0 1
    outer loop
      vertex 0.704809 0.378474 10
      vertex 0.878222 0.478253 10
      vertex 0.826239 0.563319 10
    endloop
  endfacet
  facet normal 0 0 1
    outer loop
      vertex 0.980172 -0.198146 10
      vertex 0.775837 -0.19513 10
      vertex 0.955572 -0.294755 10
    endloop
  endfacet
  facet normal -0 0 1
    outer loop
      vertex 0.745977 -0.288993 10
      vertex 0.955572 -0.294755 10
      vertex 0.775837 -0.19513 10
    endloop
  endfacet
  facet normal 0 0 1
    outer loop
      vertex 0.99503 0.0995674 10
      vertex 0.793936 0.0983105 10
      vertex 0.799999 0 10
    endloop
  endfacet
  facet normal 0 0 1
    outer loop
      vertex 0.980172 0.198146 10
      vertex 0.775837 0.19513 10
      vertex 0.793936 0.0983105 10
    endloop
  endfacet
  facet normal 0 0 1
    outer loop
      vertex 0.652957 0.462218 10
      vertex 0.826239 0.563319 10
      vertex 0.766044 0.642787 10
    endloop
  endfacet
  facet normal 0 0 1
    outer loop
      vertex 0.955572 0.294755 10
      vertex 0.745977 0.288993 10
      vertex 0.775837 0.19513 10
    endloop
  endfacet
  facet normal 0 0 1
    outer loop
      vertex 0.921475 0.388434 10
      vertex 0.704809 0.378474 10
      vertex 0.745977 0.288993 10
    endloop
  endfacet
  facet normal 0 0 1
    outer loop
      vertex 0.591207 0.538956 10
      vertex 0.766044 0.642787 10
      vertex 0.698236 0.715866 10
    endloop
  endfacet
  facet normal 0 0 1
    outer loop
      vertex 0.826239 0.563319 10
      vertex 0.652957 0.462218 10
      vertex 0.704809 0.378474 10
    endloop
  endfacet
  facet normal 0 0 1
    outer loop
      vertex 0.520494 0.607524 10
      vertex 0.698236 0.715866 10
      vertex 0.623489 0.781831 10
    endloop
  endfacet
  facet normal 0 0 1
    outer loop
      vertex 0.766044 0.642787 10
      vertex 0.591207 0.538956 10
      vertex 0.652957 0.462218 10
    endloop
  endfacet
  facet normal 0 0 1
    outer loop
      vertex 0.441892 0.666882 10
      vertex 0.623489 0.781831 10
      vertex 0.542545 0.840026 10
    endloop
  endfacet
  facet normal 0 0 1
    outer loop
      vertex 0.698236 0.715866 10
      vertex 0.520494 0.607524 10
      vertex 0.591207 0.538956 10
    endloop
  endfacet
  facet normal 0 0 1
    outer loop
      vertex 0.441892 0.666882 10
      vertex 0.542545 0.840026 10
      vertex 0.45621 0.889872 10
    endloop
  endfacet
  facet normal 0 0 1
    outer loop
      vertex 0.623489 0.781831 10
      vertex 0.441892 0.666882 10
      vertex 0.520494 0.607524 10
    endloop
  endfacet
  facet normal 0 0 1
    outer loop
      vertex 0.35659 0.71613 10
      vertex 0.45621 0.889872 10
      vertex 0.36534 0.930873 10
    endloop
  endfacet
  facet normal 0 0 1
    outer loop
      vertex 0.45621 0.889872 10
      vertex 0.35659 0.71613 10
      vertex 0.441892 0.666882 10
    endloop
  endfacet
  facet normal 0 0 1
    outer loop
      vertex 0.265883 0.754523 10
      vertex 0.36534 0.930873 10
      vertex 0.27084 0.962624 10
    endloop
  endfacet
  facet normal 0 0 1
    outer loop
      vertex 0.36534 0.930873 10
      vertex 0.265883 0.754523 10
      vertex 0.35659 0.71613 10
    endloop
  endfacet
  facet normal 0 0 1
    outer loop
      vertex 0.171146 0.781478 10
      vertex 0.27084 0.962624 10
      vertex 0.173648 0.984807 10
    endloop
  endfacet
  facet normal 0 0 1
    outer loop
      vertex 0.27084 0.962624 10
      vertex 0.171146 0.781478 10
      vertex 0.265883 0.754523 10
    endloop
  endfacet
  facet normal 0 0 1
    outer loop
      vertex 0.0738144 0.796587 10
      vertex 0.173648 0.984807 10
      vertex 0.0747299 0.997203 10
    endloop
  endfacet
  facet normal 0 0 1
    outer loop
      vertex 0.173648 0.984807 10
      vertex 0.0738144 0.796587 10
      vertex 0.171146 0.781478 10
    endloop
  endfacet
  facet normal 0 0 1
    outer loop
      vertex 0.0747299 0.997203 10
      vertex -0.0246353 0.79962 10
      vertex 0.0738144 0.796587 10
    endloop
  endfacet
  facet normal 0 0 1
    outer loop
      vertex -0.02493 0.999689 10
      vertex -0.0246353 0.79962 10
      vertex 0.0747299 0.997203 10
    endloop
  endfacet
  facet normal -0 0 1
    outer loop
      vertex -0.124343 0.992239 10
      vertex -0.0246353 0.79962 10
      vertex -0.02493 0.999689 10
    endloop
  endfacet
  facet normal 0 0 1
    outer loop
      vertex -0.0246353 0.79962 10
      vertex -0.124343 0.992239 10
      vertex -0.122713 0.790532 10
    endloop
  endfacet
  facet normal -0 0 1
    outer loop
      vertex -0.222521 0.974928 10
      vertex -0.122713 0.790532 10
      vertex -0.124343 0.992239 10
    endloop
  endfacet
  facet normal 0 0 1
    outer loop
      vertex -0.122713 0.790532 10
      vertex -0.222521 0.974928 10
      vertex -0.21893 0.76946 10
    endloop
  endfacet
  facet normal -0 0 1
    outer loop
      vertex -0.318486 0.947927 10
      vertex -0.21893 0.76946 10
      vertex -0.222521 0.974928 10
    endloop
  endfacet
  facet normal 0 0 1
    outer loop
      vertex -0.21893 0.76946 10
      vertex -0.318486 0.947927 10
      vertex -0.311829 0.736724 10
    endloop
  endfacet
  facet normal -0 0 1
    outer loop
      vertex -0.411286 0.911506 10
      vertex -0.311829 0.736724 10
      vertex -0.318486 0.947927 10
    endloop
  endfacet
  facet normal 0 0 1
    outer loop
      vertex -0.311829 0.736724 10
      vertex -0.411286 0.911506 10
      vertex -0.4 0.69282 10
    endloop
  endfacet
  facet normal -0 0 1
    outer loop
      vertex -0.5 0.866025 10
      vertex -0.4 0.69282 10
      vertex -0.411286 0.911506 10
    endloop
  endfacet
  facet normal -0 0 1
    outer loop
      vertex -0.583743 0.811937 10
      vertex -0.4 0.69282 10
      vertex -0.5 0.866025 10
    endloop
  endfacet
  facet normal 0 0 1
    outer loop
      vertex -0.4 0.69282 10
      vertex -0.583743 0.811937 10
      vertex -0.482107 0.638413 10
    endloop
  endfacet
  facet normal -0 0 1
    outer loop
      vertex -0.661685 0.749781 10
      vertex -0.482107 0.638413 10
      vertex -0.583743 0.811937 10
    endloop
  endfacet
  facet normal 0 0 1
    outer loop
      vertex -0.482107 0.638413 10
      vertex -0.661685 0.749781 10
      vertex -0.556907 0.574329 10
    endloop
  endfacet
  facet normal -0 0 1
    outer loop
      vertex -0.733051 0.680172 10
      vertex -0.556907 0.574329 10
      vertex -0.661685 0.749781 10
    endloop
  endfacet
  facet normal 0 0 1
    outer loop
      vertex -0.556907 0.574329 10
      vertex -0.733051 0.680172 10
      vertex -0.623264 0.501538 10
    endloop
  endfacet
  facet normal -0 0 1
    outer loop
      vertex -0.797132 0.603804 10
      vertex -0.623264 0.501538 10
      vertex -0.733051 0.680172 10
    endloop
  endfacet
  facet normal 0 0 1
    outer loop
      vertex -0.623264 0.501538 10
      vertex -0.797132 0.603804 10
      vertex -0.680173 0.421145 10
    endloop
  endfacet
  facet normal -0 0 1
    outer loop
      vertex -0.853291 0.521435 10
      vertex -0.680173 0.421145 10
      vertex -0.797132 0.603804 10
    endloop
  endfacet
  facet normal -0 0 1
    outer loop
      vertex -0.900969 0.433884 10
      vertex -0.680173 0.421145 10
      vertex -0.853291 0.521435 10
    endloop
  endfacet
  facet normal 0 0 1
    outer loop
      vertex -0.680173 0.421145 10
      vertex -0.900969 0.433884 10
      vertex -0.726771 0.334368 10
    endloop
  endfacet
  facet normal -0 0 1
    outer loop
      vertex -0.939692 0.34202 10
      vertex -0.726771 0.334368 10
      vertex -0.900969 0.433884 10
    endloop
  endfacet
  facet normal -0 0 1
    outer loop
      vertex -0.969077 0.246757 10
      vertex -0.762353 0.242521 10
      vertex -0.939692 0.34202 10
    endloop
  endfacet
  facet normal 0 0 1
    outer loop
      vertex -0.726771 0.334368 10
      vertex -0.939692 0.34202 10
      vertex -0.762353 0.242521 10
    endloop
  endfacet
  facet normal 0 0 1
    outer loop
      vertex 0.955572 -0.294755 10
      vertex 0.745977 -0.288993 10
      vertex 0.921475 -0.388434 10
    endloop
  endfacet
  facet normal -0 0 1
    outer loop
      vertex 0.704809 -0.378474 10
      vertex 0.921475 -0.388434 10
      vertex 0.745977 -0.288993 10
    endloop
  endfacet
  facet normal 0 0 1
    outer loop
      vertex 0.921475 -0.388434 10
      vertex 0.704809 -0.378474 10
      vertex 0.878222 -0.478253 10
    endloop
  endfacet
  facet normal 0 0 1
    outer loop
      vertex 0.878222 -0.478253 10
      vertex 0.704809 -0.378474 10
      vertex 0.826239 -0.563319 10
    endloop
  endfacet
  facet normal -0 0 1
    outer loop
      vertex 0.652957 -0.462218 10
      vertex 0.826239 -0.563319 10
      vertex 0.704809 -0.378474 10
    endloop
  endfacet
  facet normal 0 0 1
    outer loop
      vertex 0.826239 -0.563319 10
      vertex 0.652957 -0.462218 10
      vertex 0.766044 -0.642787 10
    endloop
  endfacet
  facet normal -0 0 1
    outer loop
      vertex 0.591207 -0.538956 10
      vertex 0.766044 -0.642787 10
      vertex 0.652957 -0.462218 10
    endloop
  endfacet
  facet normal 0 0 1
    outer loop
      vertex 0.766044 -0.642787 10
      vertex 0.591207 -0.538956 10
      vertex 0.698236 -0.715866 10
    endloop
  endfacet
  facet normal -0 0 1
    outer loop
      vertex 0.520494 -0.607524 10
      vertex 0.698236 -0.715866 10
      vertex 0.591207 -0.538956 10
    endloop
  endfacet
  facet normal 0 0 1
    outer loop
      vertex 0.698236 -0.715866 10
      vertex 0.520494 -0.607524 10
      vertex 0.623489 -0.781831 10
    endloop
  endfacet
  facet normal -0 0 1
    outer loop
      vertex 0.441892 -0.666882 10
      vertex 0.623489 -0.781831 10
      vertex 0.520494 -0.607524 10
    endloop
  endfacet
  facet normal 0 0 1
    outer loop
      vertex 0.623489 -0.781831 10
      vertex 0.441892 -0.666882 10
      vertex 0.542545 -0.840026 10
    endloop
  endfacet
  facet normal 0 0 1
    outer loop
      vertex 0.542545 -0.840026 10
      vertex 0.441892 -0.666882 10
      vertex 0.45621 -0.889872 10
    endloop
  endfacet
  facet normal -0 0 1
    outer loop
      vertex 0.35659 -0.71613 10
      vertex 0.45621 -0.889872 10
      vertex 0.441892 -0.666882 10
    endloop
  endfacet
  facet normal 0 0 1
    outer loop
      vertex 0.45621 -0.889872 10
      vertex 0.35659 -0.71613 10
      vertex 0.36534 -0.930873 10
    endloop
  endfacet
  facet normal -0 0 1
    outer loop
      vertex 0.265883 -0.754523 10
      vertex 0.36534 -0.930873 10
      vertex 0.35659 -0.71613 10
    endloop
  endfacet
  facet normal 0 0 1
    outer loop
      vertex 0.36534 -0.930873 10
      vertex 0.265883 -0.754523 10
      vertex 0.27084 -0.962624 10
    endloop
  endfacet
  facet normal -0 0 1
    outer loop
      vertex 0.171146 -0.781478 10
      vertex 0.27084 -0.962624 10
      vertex 0.265883 -0.754523 10
    endloop
  endfacet
  facet normal 0 0 1
    outer loop
      vertex 0.27084 -0.962624 10
      vertex 0.171146 -0.781478 10
      vertex 0.173648 -0.984807 10
    endloop
  endfacet
  facet normal -0 0 1
    outer loop
      vertex 0.0738144 -0.796587 10
      vertex 0.173648 -0.984807 10
      vertex 0.171146 -0.781478 10
    endloop
  endfacet
  facet normal 0 0 1
    outer loop
      vertex 0.173648 -0.984807 10
      vertex 0.0738144 -0.796587 10
      vertex 0.0747299 -0.997203 10
    endloop
  endfacet
  facet normal -0 0 1
    outer loop
      vertex -0.0246353 -0.79962 10
      vertex 0.0747299 -0.997203 10
      vertex 0.0738144 -0.796587 10
    endloop
  endfacet
  facet normal 0 0 1
    outer loop
      vertex -0.0246353 -0.79962 10
      vertex -0.02493 -0.999689 10
      vertex 0.0747299 -0.997203 10
    endloop
  endfacet
  facet normal 0 0 1
    outer loop
      vertex -0.124343 -0.992239 10
      vertex -0.0246353 -0.79962 10
      vertex -0.122713 -0.790532 10
    endloop
  endfacet
  facet normal 0 0 1
    outer loop
      vertex -0.0246353 -0.79962 10
      vertex -0.124343 -0.992239 10
      vertex -0.02493 -0.999689 10
    endloop
  endfacet
  facet normal 0 0 1
    outer loop
      vertex -0.222521 -0.974928 10
      vertex -0.122713 -0.790532 10
      vertex -0.21893 -0.76946 10
    endloop
  endfacet
  facet normal 0 0 1
    outer loop
      vertex -0.122713 -0.790532 10
      vertex -0.222521 -0.974928 10
      vertex -0.124343 -0.992239 10
    endloop
  endfacet
  facet normal 0 0 1
    outer loop
      vertex -0.318486 -0.947927 10
      vertex -0.21893 -0.76946 10
      vertex -0.311829 -0.736724 10
    endloop
  endfacet
  facet normal 0 0 1
    outer loop
      vertex -0.21893 -0.76946 10
      vertex -0.318486 -0.947927 10
      vertex -0.222521 -0.974928 10
    endloop
  endfacet
  facet normal 0 0 1
    outer loop
      vertex -0.411286 -0.911506 10
      vertex -0.311829 -0.736724 10
      vertex -0.4 -0.69282 10
    endloop
  endfacet
  facet normal 0 0 1
    outer loop
      vertex -0.311829 -0.736724 10
      vertex -0.411286 -0.911506 10
      vertex -0.318486 -0.947927 10
    endloop
  endfacet
  facet normal 0 0 1
    outer loop
      vertex -0.583743 -0.811937 10
      vertex -0.4 -0.69282 10
      vertex -0.482107 -0.638413 10
    endloop
  endfacet
  facet normal 0 0 1
    outer loop
      vertex -0.4 -0.69282 10
      vertex -0.499999 -0.866025 10
      vertex -0.411286 -0.911506 10
    endloop
  endfacet
  facet normal 0 0 1
    outer loop
      vertex -0.661685 -0.749781 10
      vertex -0.482107 -0.638413 10
      vertex -0.556907 -0.574329 10
    endloop
  endfacet
  facet normal 0 0 1
    outer loop
      vertex -0.4 -0.69282 10
      vertex -0.583743 -0.811937 10
      vertex -0.499999 -0.866025 10
    endloop
  endfacet
  facet normal 0 0 1
    outer loop
      vertex -0.733051 -0.680172 10
      vertex -0.556907 -0.574329 10
      vertex -0.623264 -0.501538 10
    endloop
  endfacet
  facet normal 0 0 1
    outer loop
      vertex -0.482107 -0.638413 10
      vertex -0.661685 -0.749781 10
      vertex -0.583743 -0.811937 10
    endloop
  endfacet
  facet normal 0 0 1
    outer loop
      vertex -0.797132 -0.603804 10
      vertex -0.623264 -0.501538 10
      vertex -0.680173 -0.421145 10
    endloop
  endfacet
  facet normal 0 0 1
    outer loop
      vertex -0.900969 -0.433884 10
      vertex -0.680173 -0.421145 10
      vertex -0.726771 -0.334368 10
    endloop
  endfacet
  facet normal 0 0 1
    outer loop
      vertex -0.556907 -0.574329 10
      vertex -0.733051 -0.680172 10
      vertex -0.661685 -0.749781 10
    endloop
  endfacet
  facet normal 0 0 1
    outer loop
      vertex -0.939692 -0.34202 10
      vertex -0.726771 -0.334368 10
      vertex -0.762353 -0.242521 10
    endloop
  endfacet
  facet normal 0 0 1
    outer loop
      vertex -0.969077 -0.246757 10
      vertex -0.762353 -0.242521 10
      vertex -0.786378 -0.146999 10
    endloop
  endfacet
  facet normal 0 0 1
    outer loop
      vertex -0.623264 -0.501538 10
      vertex -0.797132 -0.603804 10
      vertex -0.733051 -0.680172 10
    endloop
  endfacet
  facet normal 0 0 1
    outer loop
      vertex -0.988831 -0.149042 10
      vertex -0.786378 -0.146999 10
      vertex -0.798482 -0.0492487 10
    endloop
  endfacet
  facet normal 0 0 1
    outer loop
      vertex -0.762353 0.242521 10
      vertex -0.969077 0.246757 10
      vertex -0.786378 0.146999 10
    endloop
  endfacet
  facet normal 0 0 1
    outer loop
      vertex -0.680173 -0.421145 10
      vertex -0.853291 -0.521435 10
      vertex -0.797132 -0.603804 10
    endloop
  endfacet
  facet normal -0 0 1
    outer loop
      vertex -0.988831 0.149042 10
      vertex -0.786378 0.146999 10
      vertex -0.969077 0.246757 10
    endloop
  endfacet
  facet normal 0 0 1
    outer loop
      vertex -0.680173 -0.421145 10
      vertex -0.900969 -0.433884 10
      vertex -0.853291 -0.521435 10
    endloop
  endfacet
  facet normal 0 0 1
    outer loop
      vertex -0.786378 0.146999 10
      vertex -0.988831 0.149042 10
      vertex -0.798482 0.0492487 10
    endloop
  endfacet
  facet normal 0 0 1
    outer loop
      vertex -0.726771 -0.334368 10
      vertex -0.939692 -0.34202 10
      vertex -0.900969 -0.433884 10
    endloop
  endfacet
  facet normal -0 0 1
    outer loop
      vertex -0.998756 0.0498457 10
      vertex -0.798482 0.0492487 10
      vertex -0.988831 0.149042 10
    endloop
  endfacet
  facet normal 0 0 1
    outer loop
      vertex -0.762353 -0.242521 10
      vertex -0.969077 -0.246757 10
      vertex -0.939692 -0.34202 10
    endloop
  endfacet
  facet normal 0 0 1
    outer loop
      vertex -0.798482 0.0492487 10
      vertex -0.998756 0.0498457 10
      vertex -0.798482 -0.0492487 10
    endloop
  endfacet
  facet normal 0 0 1
    outer loop
      vertex -0.786378 -0.146999 10
      vertex -0.988831 -0.149042 10
      vertex -0.969077 -0.246757 10
    endloop
  endfacet
  facet normal 0 0 1
    outer loop
      vertex -0.998756 -0.0498457 10
      vertex -0.798482 -0.0492487 10
      vertex -0.998756 0.0498457 10
    endloop
  endfacet
  facet normal 0 0 1
    outer loop
      vertex -0.798482 -0.0492487 10
      vertex -0.998756 -0.0498457 10
      vertex -0.988831 -0.149042 10
    endloop
  endfacet
  facet normal -0.542551 0.840023 0
    outer loop
      vertex -0.5 0.866025 0
      vertex -0.583743 0.811937 10
      vertex -0.5 0.866025 10
    endloop
  endfacet
  facet normal -0.542551 0.840023 0
    outer loop
      vertex -0.583743 0.811937 10
      vertex -0.5 0.866025 0
      vertex -0.583743 0.811937 0
    endloop
  endfacet
  facet normal -0.45621 0.889872 0
    outer loop
      vertex -0.411286 0.911506 0
      vertex -0.5 0.866025 10
      vertex -0.411286 0.911506 10
    endloop
  endfacet
  facet normal -0.45621 0.889872 0
    outer loop
      vertex -0.5 0.866025 10
      vertex -0.411286 0.911506 0
      vertex -0.5 0.866025 0
    endloop
  endfacet
  facet normal -0.62349 0.781831 0
    outer loop
      vertex -0.583743 0.811937 0
      vertex -0.661685 0.749781 10
      vertex -0.583743 0.811937 10
    endloop
  endfacet
  facet normal -0.62349 0.781831 0
    outer loop
      vertex -0.661685 0.749781 10
      vertex -0.583743 0.811937 0
      vertex -0.661685 0.749781 0
    endloop
  endfacet
  facet normal -0.270849 0.962622 0
    outer loop
      vertex -0.222521 0.974928 0
      vertex -0.318486 0.947927 10
      vertex -0.222521 0.974928 10
    endloop
  endfacet
  facet normal -0.270849 0.962622 0
    outer loop
      vertex -0.318486 0.947927 10
      vertex -0.222521 0.974928 0
      vertex -0.318486 0.947927 0
    endloop
  endfacet
  facet normal -0.0747314 0.997204 0
    outer loop
      vertex -0.02493 0.999689 0
      vertex -0.124343 0.992239 10
      vertex -0.02493 0.999689 10
    endloop
  endfacet
  facet normal -0.0747314 0.997204 0
    outer loop
      vertex -0.124343 0.992239 10
      vertex -0.02493 0.999689 0
      vertex -0.124343 0.992239 0
    endloop
  endfacet
  facet normal 0.998757 -0.0498498 0
    outer loop
      vertex 0.99503 -0.0995674 10
      vertex 1 0 0
      vertex 1 0 10
    endloop
  endfacet
  facet normal 0.998757 -0.0498498 0
    outer loop
      vertex 1 0 0
      vertex 0.99503 -0.0995674 10
      vertex 0.99503 -0.0995674 0
    endloop
  endfacet
  facet normal 0.733053 -0.680171 0
    outer loop
      vertex 0.698236 -0.715866 10
      vertex 0.766044 -0.642787 0
      vertex 0.766044 -0.642787 10
    endloop
  endfacet
  facet normal 0.733053 -0.680171 0
    outer loop
      vertex 0.766044 -0.642787 0
      vertex 0.698236 -0.715866 10
      vertex 0.698236 -0.715866 0
    endloop
  endfacet
  facet normal 0.124342 -0.992239 0
    outer loop
      vertex 0.0747299 -0.997203 0
      vertex 0.173648 -0.984807 10
      vertex 0.0747299 -0.997203 10
    endloop
  endfacet
  facet normal 0.124342 -0.992239 0
    outer loop
      vertex 0.173648 -0.984807 10
      vertex 0.0747299 -0.997203 0
      vertex 0.173648 -0.984807 0
    endloop
  endfacet
  facet normal 0.969077 -0.24676 0
    outer loop
      vertex 0.955572 -0.294755 10
      vertex 0.980172 -0.198146 0
      vertex 0.980172 -0.198146 10
    endloop
  endfacet
  facet normal 0.969077 -0.24676 0
    outer loop
      vertex 0.980172 -0.198146 0
      vertex 0.955572 -0.294755 10
      vertex 0.955572 -0.294755 0
    endloop
  endfacet
  facet normal 0.79713 -0.603807 0
    outer loop
      vertex 0.766044 -0.642787 10
      vertex 0.826239 -0.563319 0
      vertex 0.826239 -0.563319 10
    endloop
  endfacet
  facet normal 0.79713 -0.603807 0
    outer loop
      vertex 0.826239 -0.563319 0
      vertex 0.766044 -0.642787 10
      vertex 0.766044 -0.642787 0
    endloop
  endfacet
  facet normal 0.900971 -0.433879 0
    outer loop
      vertex 0.878222 -0.478253 10
      vertex 0.921475 -0.388434 0
      vertex 0.921475 -0.388434 10
    endloop
  endfacet
  facet normal 0.900971 -0.433879 0
    outer loop
      vertex 0.921475 -0.388434 0
      vertex 0.878222 -0.478253 10
      vertex 0.878222 -0.478253 0
    endloop
  endfacet
  facet normal 0 0 -1
    outer loop
      vertex 0.799999 0 0
      vertex 1 0 0
      vertex 0.99503 -0.0995674 0
    endloop
  endfacet
  facet normal 0 0 -1
    outer loop
      vertex 0.793936 -0.0983105 0
      vertex 0.99503 -0.0995674 0
      vertex 0.980172 -0.198146 0
    endloop
  endfacet
  facet normal 0 0 -1
    outer loop
      vertex 1 0 0
      vertex 0.799999 0 0
      vertex 0.99503 0.0995674 0
    endloop
  endfacet
  facet normal 0 0 -1
    outer loop
      vertex 0.775837 -0.19513 0
      vertex 0.980172 -0.198146 0
      vertex 0.955572 -0.294755 0
    endloop
  endfacet
  facet normal 0 0 -1
    outer loop
      vertex 0.793936 0.0983105 0
      vertex 0.99503 0.0995674 0
      vertex 0.799999 0 0
    endloop
  endfacet
  facet normal 0 0 -1
    outer loop
      vertex 0.745977 -0.288993 0
      vertex 0.955572 -0.294755 0
      vertex 0.921475 -0.388434 0
    endloop
  endfacet
  facet normal -0 0 -1
    outer loop
      vertex 0.99503 0.0995674 0
      vertex 0.793936 0.0983105 0
      vertex 0.980172 0.198146 0
    endloop
  endfacet
  facet normal 0 0 -1
    outer loop
      vertex 0.704809 -0.378474 0
      vertex 0.921475 -0.388434 0
      vertex 0.878222 -0.478253 0
    endloop
  endfacet
  facet normal 0 0 -1
    outer loop
      vertex 0.775837 0.19513 0
      vertex 0.980172 0.198146 0
      vertex 0.793936 0.0983105 0
    endloop
  endfacet
  facet normal 0 0 -1
    outer loop
      vertex 0.704809 -0.378474 0
      vertex 0.878222 -0.478253 0
      vertex 0.826239 -0.563319 0
    endloop
  endfacet
  facet normal -0 0 -1
    outer loop
      vertex 0.980172 0.198146 0
      vertex 0.775837 0.19513 0
      vertex 0.955572 0.294755 0
    endloop
  endfacet
  facet normal 0 0 -1
    outer loop
      vertex 0.745977 0.288993 0
      vertex 0.955572 0.294755 0
      vertex 0.775837 0.19513 0
    endloop
  endfacet
  facet normal 0 0 -1
    outer loop
      vertex 0.99503 -0.0995674 0
      vertex 0.793936 -0.0983105 0
      vertex 0.799999 0 0
    endloop
  endfacet
  facet normal 0 0 -1
    outer loop
      vertex 0.980172 -0.198146 0
      vertex 0.775837 -0.19513 0
      vertex 0.793936 -0.0983105 0
    endloop
  endfacet
  facet normal 0 0 -1
    outer loop
      vertex 0.652957 -0.462218 0
      vertex 0.826239 -0.563319 0
      vertex 0.766044 -0.642787 0
    endloop
  endfacet
  facet normal 0 0 -1
    outer loop
      vertex 0.955572 -0.294755 0
      vertex 0.745977 -0.288993 0
      vertex 0.775837 -0.19513 0
    endloop
  endfacet
  facet normal 0 0 -1
    outer loop
      vertex 0.921475 -0.388434 0
      vertex 0.704809 -0.378474 0
      vertex 0.745977 -0.288993 0
    endloop
  endfacet
  facet normal 0 0 -1
    outer loop
      vertex 0.591207 -0.538956 0
      vertex 0.766044 -0.642787 0
      vertex 0.698236 -0.715866 0
    endloop
  endfacet
  facet normal 0 0 -1
    outer loop
      vertex 0.826239 -0.563319 0
      vertex 0.652957 -0.462218 0
      vertex 0.704809 -0.378474 0
    endloop
  endfacet
  facet normal 0 0 -1
    outer loop
      vertex 0.520494 -0.607524 0
      vertex 0.698236 -0.715866 0
      vertex 0.623489 -0.781831 0
    endloop
  endfacet
  facet normal 0 0 -1
    outer loop
      vertex 0.766044 -0.642787 0
      vertex 0.591207 -0.538956 0
      vertex 0.652957 -0.462218 0
    endloop
  endfacet
  facet normal 0 0 -1
    outer loop
      vertex 0.441892 -0.666882 0
      vertex 0.623489 -0.781831 0
      vertex 0.542545 -0.840026 0
    endloop
  endfacet
  facet normal 0 0 -1
    outer loop
      vertex 0.698236 -0.715866 0
      vertex 0.520494 -0.607524 0
      vertex 0.591207 -0.538956 0
    endloop
  endfacet
  facet normal 0 0 -1
    outer loop
      vertex 0.441892 -0.666882 0
      vertex 0.542545 -0.840026 0
      vertex 0.45621 -0.889872 0
    endloop
  endfacet
  facet normal 0 0 -1
    outer loop
      vertex 0.623489 -0.781831 0
      vertex 0.441892 -0.666882 0
      vertex 0.520494 -0.607524 0
    endloop
  endfacet
  facet normal 0 0 -1
    outer loop
      vertex 0.35659 -0.71613 0
      vertex 0.45621 -0.889872 0
      vertex 0.36534 -0.930873 0
    endloop
  endfacet
  facet normal 0 0 -1
    outer loop
      vertex 0.45621 -0.889872 0
      vertex 0.35659 -0.71613 0
      vertex 0.441892 -0.666882 0
    endloop
  endfacet
  facet normal 0 0 -1
    outer loop
      vertex 0.265883 -0.754523 0
      vertex 0.36534 -0.930873 0
      vertex 0.27084 -0.962624 0
    endloop
  endfacet
  facet normal 0 0 -1
    outer loop
      vertex 0.36534 -0.930873 0
      vertex 0.265883 -0.754523 0
      vertex 0.35659 -0.71613 0
    endloop
  endfacet
  facet normal 0 0 -1
    outer loop
      vertex 0.171146 -0.781478 0
      vertex 0.27084 -0.962624 0
      vertex 0.173648 -0.984807 0
    endloop
  endfacet
  facet normal 0 0 -1
    outer loop
      vertex 0.27084 -0.962624 0
      vertex 0.171146 -0.781478 0
      vertex 0.265883 -0.754523 0
    endloop
  endfacet
  facet normal 0 0 -1
    outer loop
      vertex 0.0738144 -0.796587 0
      vertex 0.173648 -0.984807 0
      vertex 0.0747299 -0.997203 0
    endloop
  endfacet
  facet normal 0 0 -1
    outer loop
      vertex 0.173648 -0.984807 0
      vertex 0.0738144 -0.796587 0
      vertex 0.171146 -0.781478 0
    endloop
  endfacet
  facet normal 0 0 -1
    outer loop
      vertex 0.0747299 -0.997203 0
      vertex -0.0246353 -0.79962 0
      vertex 0.0738144 -0.796587 0
    endloop
  endfacet
  facet normal 0 0 -1
    outer loop
      vertex -0.02493 -0.999689 0
      vertex -0.0246353 -0.79962 0
      vertex 0.0747299 -0.997203 0
    endloop
  endfacet
  facet normal 0 0 -1
    outer loop
      vertex -0.124343 -0.992239 0
      vertex -0.0246353 -0.79962 0
      vertex -0.02493 -0.999689 0
    endloop
  endfacet
  facet normal -0 0 -1
    outer loop
      vertex -0.0246353 -0.79962 0
      vertex -0.124343 -0.992239 0
      vertex -0.122713 -0.790532 0
    endloop
  endfacet
  facet normal 0 0 -1
    outer loop
      vertex -0.222521 -0.974928 0
      vertex -0.122713 -0.790532 0
      vertex -0.124343 -0.992239 0
    endloop
  endfacet
  facet normal -0 0 -1
    outer loop
      vertex -0.122713 -0.790532 0
      vertex -0.222521 -0.974928 0
      vertex -0.21893 -0.76946 0
    endloop
  endfacet
  facet normal 0 0 -1
    outer loop
      vertex -0.318486 -0.947927 0
      vertex -0.21893 -0.76946 0
      vertex -0.222521 -0.974928 0
    endloop
  endfacet
  facet normal -0 0 -1
    outer loop
      vertex -0.21893 -0.76946 0
      vertex -0.318486 -0.947927 0
      vertex -0.311829 -0.736724 0
    endloop
  endfacet
  facet normal 0 0 -1
    outer loop
      vertex -0.411286 -0.911506 0
      vertex -0.311829 -0.736724 0
      vertex -0.318486 -0.947927 0
    endloop
  endfacet
  facet normal -0 0 -1
    outer loop
      vertex -0.311829 -0.736724 0
      vertex -0.411286 -0.911506 0
      vertex -0.4 -0.69282 0
    endloop
  endfacet
  facet normal 0 0 -1
    outer loop
      vertex -0.499999 -0.866025 0
      vertex -0.4 -0.69282 0
      vertex -0.411286 -0.911506 0
    endloop
  endfacet
  facet normal 0 0 -1
    outer loop
      vertex -0.583743 -0.811937 0
      vertex -0.4 -0.69282 0
      vertex -0.499999 -0.866025 0
    endloop
  endfacet
  facet normal -0 0 -1
    outer loop
      vertex -0.4 -0.69282 0
      vertex -0.583743 -0.811937 0
      vertex -0.482107 -0.638413 0
    endloop
  endfacet
  facet normal 0 0 -1
    outer loop
      vertex -0.661685 -0.749781 0
      vertex -0.482107 -0.638413 0
      vertex -0.583743 -0.811937 0
    endloop
  endfacet
  facet normal -0 0 -1
    outer loop
      vertex -0.482107 -0.638413 0
      vertex -0.661685 -0.749781 0
      vertex -0.556907 -0.574329 0
    endloop
  endfacet
  facet normal 0 0 -1
    outer loop
      vertex -0.733051 -0.680172 0
      vertex -0.556907 -0.574329 0
      vertex -0.661685 -0.749781 0
    endloop
  endfacet
  facet normal -0 0 -1
    outer loop
      vertex -0.556907 -0.574329 0
      vertex -0.733051 -0.680172 0
      vertex -0.623264 -0.501538 0
    endloop
  endfacet
  facet normal 0 0 -1
    outer loop
      vertex -0.797132 -0.603804 0
      vertex -0.623264 -0.501538 0
      vertex -0.733051 -0.680172 0
    endloop
  endfacet
  facet normal -0 0 -1
    outer loop
      vertex -0.623264 -0.501538 0
      vertex -0.797132 -0.603804 0
      vertex -0.680173 -0.421145 0
    endloop
  endfacet
  facet normal 0 0 -1
    outer loop
      vertex -0.853291 -0.521435 0
      vertex -0.680173 -0.421145 0
      vertex -0.797132 -0.603804 0
    endloop
  endfacet
  facet normal 0 0 -1
    outer loop
      vertex -0.900969 -0.433884 0
      vertex -0.680173 -0.421145 0
      vertex -0.853291 -0.521435 0
    endloop
  endfacet
  facet normal -0 0 -1
    outer loop
      vertex -0.680173 -0.421145 0
      vertex -0.900969 -0.433884 0
      vertex -0.726771 -0.334368 0
    endloop
  endfacet
  facet normal 0 0 -1
    outer loop
      vertex -0.939692 -0.34202 0
      vertex -0.726771 -0.334368 0
      vertex -0.900969 -0.433884 0
    endloop
  endfacet
  facet normal 0 0 -1
    outer loop
      vertex -0.969077 -0.246757 0
      vertex -0.762353 -0.242521 0
      vertex -0.939692 -0.34202 0
    endloop
  endfacet
  facet normal -0 0 -1
    outer loop
      vertex -0.726771 -0.334368 0
      vertex -0.939692 -0.34202 0
      vertex -0.762353 -0.242521 0
    endloop
  endfacet
  facet normal -0 0 -1
    outer loop
      vertex 0.955572 0.294755 0
      vertex 0.745977 0.288993 0
      vertex 0.921475 0.388434 0
    endloop
  endfacet
  facet normal 0 0 -1
    outer loop
      vertex 0.704809 0.378474 0
      vertex 0.921475 0.388434 0
      vertex 0.745977 0.288993 0
    endloop
  endfacet
  facet normal -0 0 -1
    outer loop
      vertex 0.921475 0.388434 0
      vertex 0.704809 0.378474 0
      vertex 0.878222 0.478253 0
    endloop
  endfacet
  facet normal -0 0 -1
    outer loop
      vertex 0.878222 0.478253 0
      vertex 0.704809 0.378474 0
      vertex 0.826239 0.563319 0
    endloop
  endfacet
  facet normal 0 0 -1
    outer loop
      vertex 0.652957 0.462218 0
      vertex 0.826239 0.563319 0
      vertex 0.704809 0.378474 0
    endloop
  endfacet
  facet normal -0 0 -1
    outer loop
      vertex 0.826239 0.563319 0
      vertex 0.652957 0.462218 0
      vertex 0.766044 0.642787 0
    endloop
  endfacet
  facet normal 0 0 -1
    outer loop
      vertex 0.591207 0.538956 0
      vertex 0.766044 0.642787 0
      vertex 0.652957 0.462218 0
    endloop
  endfacet
  facet normal -0 0 -1
    outer loop
      vertex 0.766044 0.642787 0
      vertex 0.591207 0.538956 0
      vertex 0.698236 0.715866 0
    endloop
  endfacet
  facet normal 0 0 -1
    outer loop
      vertex 0.520494 0.607524 0
      vertex 0.698236 0.715866 0
      vertex 0.591207 0.538956 0
    endloop
  endfacet
  facet normal -0 0 -1
    outer loop
      vertex 0.698236 0.715866 0
      vertex 0.520494 0.607524 0
      vertex 0.623489 0.781831 0
    endloop
  endfacet
  facet normal 0 0 -1
    outer loop
      vertex 0.441892 0.666882 0
      vertex 0.623489 0.781831 0
      vertex 0.520494 0.607524 0
    endloop
  endfacet
  facet normal -0 0 -1
    outer loop
      vertex 0.623489 0.781831 0
      vertex 0.441892 0.666882 0
      vertex 0.542545 0.840026 0
    endloop
  endfacet
  facet normal -0 0 -1
    outer loop
      vertex 0.542545 0.840026 0
      vertex 0.441892 0.666882 0
      vertex 0.45621 0.889872 0
    endloop
  endfacet
  facet normal 0 0 -1
    outer loop
      vertex 0.35659 0.71613 0
      vertex 0.45621 0.889872 0
      vertex 0.441892 0.666882 0
    endloop
  endfacet
  facet normal -0 0 -1
    outer loop
      vertex 0.45621 0.889872 0
      vertex 0.35659 0.71613 0
      vertex 0.36534 0.930873 0
    endloop
  endfacet
  facet normal 0 0 -1
    outer loop
      vertex 0.265883 0.754523 0
      vertex 0.36534 0.930873 0
      vertex 0.35659 0.71613 0
    endloop
  endfacet
  facet normal -0 0 -1
    outer loop
      vertex 0.36534 0.930873 0
      vertex 0.265883 0.754523 0
      vertex 0.27084 0.962624 0
    endloop
  endfacet
  facet normal 0 0 -1
    outer loop
      vertex 0.171146 0.781478 0
      vertex 0.27084 0.962624 0
      vertex 0.265883 0.754523 0
    endloop
  endfacet
  facet normal -0 0 -1
    outer loop
      vertex 0.27084 0.962624 0
      vertex 0.171146 0.781478 0
      vertex 0.173648 0.984807 0
    endloop
  endfacet
  facet normal 0 0 -1
    outer loop
      vertex 0.0738144 0.796587 0
      vertex 0.173648 0.984807 0
      vertex 0.171146 0.781478 0
    endloop
  endfacet
  facet normal -0 0 -1
    outer loop
      vertex 0.173648 0.984807 0
      vertex 0.0738144 0.796587 0
      vertex 0.0747299 0.997203 0
    endloop
  endfacet
  facet normal 0 0 -1
    outer loop
      vertex -0.0246353 0.79962 0
      vertex 0.0747299 0.997203 0
      vertex 0.0738144 0.796587 0
    endloop
  endfacet
  facet normal 0 0 -1
    outer loop
      vertex -0.0246353 0.79962 0
      vertex -0.02493 0.999689 0
      vertex 0.0747299 0.997203 0
    endloop
  endfacet
  facet normal 0 0 -1
    outer loop
      vertex -0.124343 0.992239 0
      vertex -0.0246353 0.79962 0
      vertex -0.122713 0.790532 0
    endloop
  endfacet
  facet normal 0 0 -1
    outer loop
      vertex -0.0246353 0.79962 0
      vertex -0.124343 0.992239 0
      vertex -0.02493 0.999689 0
    endloop
  endfacet
  facet normal 0 0 -1
    outer loop
      vertex -0.222521 0.974928 0
      vertex -0.122713 0.790532 0
      vertex -0.21893 0.76946 0
    endloop
  endfacet
  facet normal 0 0 -1
    outer loop
      vertex -0.122713 0.790532 0
      vertex -0.222521 0.974928 0
      vertex -0.124343 0.992239 0
    endloop
  endfacet
  facet normal 0 0 -1
    outer loop
      vertex -0.318486 0.947927 0
      vertex -0.21893 0.76946 0
      vertex -0.311829 0.736724 0
    endloop
  endfacet
  facet normal 0 0 -1
    outer loop
      vertex -0.21893 0.76946 0
      vertex -0.318486 0.947927 0
      vertex -0.222521 0.974928 0
    endloop
  endfacet
  facet normal 0 0 -1
    outer loop
      vertex -0.411286 0.911506 0
      vertex -0.311829 0.736724 0
      vertex -0.4 0.69282 0
    endloop
  endfacet
  facet normal 0 0 -1
    outer loop
      vertex -0.311829 0.736724 0
      vertex -0.411286 0.911506 0
      vertex -0.318486 0.947927 0
    endloop
  endfacet
  facet normal 0 0 -1
    outer loop
      vertex -0.583743 0.811937 0
      vertex -0.4 0.69282 0
      vertex -0.482107 0.638413 0
    endloop
  endfacet
  facet normal 0 0 -1
    outer loop
      vertex -0.4 0.69282 0
      vertex -0.5 0.866025 0
      vertex -0.411286 0.911506 0
    endloop
  endfacet
  facet normal 0 0 -1
    outer loop
      vertex -0.661685 0.749781 0
      vertex -0.482107 0.638413 0
      vertex -0.556907 0.574329 0
    endloop
  endfacet
  facet normal 0 0 -1
    outer loop
      vertex -0.4 0.69282 0
      vertex -0.583743 0.811937 0
      vertex -0.5 0.866025 0
    endloop
  endfacet
  facet normal 0 0 -1
    outer loop
      vertex -0.733051 0.680172 0
      vertex -0.556907 0.574329 0
      vertex -0.623264 0.501538 0
    endloop
  endfacet
  facet normal 0 0 -1
    outer loop
      vertex -0.482107 0.638413 0
      vertex -0.661685 0.749781 0
      vertex -0.583743 0.811937 0
    endloop
  endfacet
  facet normal 0 0 -1
    outer loop
      vertex -0.797132 0.603804 0
      vertex -0.623264 0.501538 0
      vertex -0.680173 0.421145 0
    endloop
  endfacet
  facet normal 0 0 -1
    outer loop
      vertex -0.900969 0.433884 0
      vertex -0.680173 0.421145 0
      vertex -0.726771 0.334368 0
    endloop
  endfacet
  facet normal 0 0 -1
    outer loop
      vertex -0.556907 0.574329 0
      vertex -0.733051 0.680172 0
      vertex -0.661685 0.749781 0
    endloop
  endfacet
  facet normal 0 0 -1
    outer loop
      vertex -0.939692 0.34202 0
      vertex -0.726771 0.334368 0
      vertex -0.762353 0.242521 0
    endloop
  endfacet
  facet normal 0 0 -1
    outer loop
      vertex -0.969077 0.246757 0
      vertex -0.762353 0.242521 0
      vertex -0.786378 0.146999 0
    endloop
  endfacet
  facet normal 0 0 -1
    outer loop
      vertex -0.623264 0.501538 0
      vertex -0.797132 0.603804 0
      vertex -0.733051 0.680172 0
    endloop
  endfacet
  facet normal 0 0 -1
    outer loop
      vertex -0.988831 0.149042 0
      vertex -0.786378 0.146999 0
      vertex -0.798482 0.0492487 0
    endloop
  endfacet
  facet normal -0 0 -1
    outer loop
      vertex -0.762353 -0.242521 0
      vertex -0.969077 -0.246757 0
      vertex -0.786378 -0.146999 0
    endloop
  endfacet
  facet normal 0 0 -1
    outer loop
      vertex -0.680173 0.421145 0
      vertex -0.853291 0.521435 0
      vertex -0.797132 0.603804 0
    endloop
  endfacet
  facet normal 0 0 -1
    outer loop
      vertex -0.988831 -0.149042 0
      vertex -0.786378 -0.146999 0
      vertex -0.969077 -0.246757 0
    endloop
  endfacet
  facet normal 0 0 -1
    outer loop
      vertex -0.680173 0.421145 0
      vertex -0.900969 0.433884 0
      vertex -0.853291 0.521435 0
    endloop
  endfacet
  facet normal -0 0 -1
    outer loop
      vertex -0.786378 -0.146999 0
      vertex -0.988831 -0.149042 0
      vertex -0.798482 -0.0492487 0
    endloop
  endfacet
  facet normal 0 0 -1
    outer loop
      vertex -0.726771 0.334368 0
      vertex -0.939692 0.34202 0
      vertex -0.900969 0.433884 0
    endloop
  endfacet
  facet normal 0 0 -1
    outer loop
      vertex -0.998756 -0.0498457 0
      vertex -0.798482 -0.0492487 0
      vertex -0.988831 -0.149042 0
    endloop
  endfacet
  facet normal 0 0 -1
    outer loop
      vertex -0.762353 0.242521 0
      vertex -0.969077 0.246757 0
      vertex -0.939692 0.34202 0
    endloop
  endfacet
  facet normal -0 0 -1
    outer loop
      vertex -0.798482 -0.0492487 0
      vertex -0.998756 -0.0498457 0
      vertex -0.798482 0.0492487 0
    endloop
  endfacet
  facet normal 0 0 -1
    outer loop
      vertex -0.786378 0.146999 0
      vertex -0.988831 0.149042 0
      vertex -0.969077 0.246757 0
    endloop
  endfacet
  facet normal 0 0 -1
    outer loop
      vertex -0.998756 0.0498457 0
      vertex -0.798482 0.0492487 0
      vertex -0.998756 -0.0498457 0
    endloop
  endfacet
  facet normal 0 0 -1
    outer loop
      vertex -0.798482 0.0492487 0
      vertex -0.998756 0.0498457 0
      vertex -0.988831 0.149042 0
    endloop
  endfacet
  facet normal 0.222521 -0.974928 0
    outer loop
      vertex 0.173648 -0.984807 0
      vertex 0.27084 -0.962624 10
      vertex 0.173648 -0.984807 10
    endloop
  endfacet
  facet normal 0.222521 -0.974928 0
    outer loop
      vertex 0.27084 -0.962624 10
      vertex 0.173648 -0.984807 0
      vertex 0.27084 -0.962624 0
    endloop
  endfacet
  facet normal 0.85329 -0.521437 0
    outer loop
      vertex 0.826239 -0.563319 10
      vertex 0.878222 -0.478253 0
      vertex 0.878222 -0.478253 10
    endloop
  endfacet
  facet normal 0.85329 -0.521437 0
    outer loop
      vertex 0.878222 -0.478253 0
      vertex 0.826239 -0.563319 10
      vertex 0.826239 -0.563319 0
    endloop
  endfacet
  facet normal 0.661686 -0.749781 0
    outer loop
      vertex 0.623489 -0.781831 0
      vertex 0.698236 -0.715866 10
      vertex 0.623489 -0.781831 10
    endloop
  endfacet
  facet normal 0.661686 -0.749781 0
    outer loop
      vertex 0.698236 -0.715866 10
      vertex 0.623489 -0.781831 0
      vertex 0.698236 -0.715866 0
    endloop
  endfacet
  facet normal 0.583746 -0.811937 0
    outer loop
      vertex 0.542545 -0.840026 0
      vertex 0.623489 -0.781831 10
      vertex 0.542545 -0.840026 10
    endloop
  endfacet
  facet normal 0.583746 -0.811937 0
    outer loop
      vertex 0.623489 -0.781831 10
      vertex 0.542545 -0.840026 0
      vertex 0.623489 -0.781831 0
    endloop
  endfacet
  facet normal 0.5 -0.866025 0
    outer loop
      vertex 0.45621 -0.889872 0
      vertex 0.542545 -0.840026 10
      vertex 0.45621 -0.889872 10
    endloop
  endfacet
  facet normal 0.5 -0.866025 0
    outer loop
      vertex 0.542545 -0.840026 10
      vertex 0.45621 -0.889872 0
      vertex 0.542545 -0.840026 0
    endloop
  endfacet
  facet normal 0.939692 -0.342022 0
    outer loop
      vertex 0.921475 -0.388434 10
      vertex 0.955572 -0.294755 0
      vertex 0.955572 -0.294755 10
    endloop
  endfacet
  facet normal 0.939692 -0.342022 0
    outer loop
      vertex 0.955572 -0.294755 0
      vertex 0.921475 -0.388434 10
      vertex 0.921475 -0.388434 0
    endloop
  endfacet
  facet normal -0.0747314 -0.997204 0
    outer loop
      vertex -0.124343 -0.992239 0
      vertex -0.02493 -0.999689 10
      vertex -0.124343 -0.992239 10
    endloop
  endfacet
  facet normal -0.0747314 -0.997204 -0
    outer loop
      vertex -0.02493 -0.999689 10
      vertex -0.124343 -0.992239 0
      vertex -0.02493 -0.999689 0
    endloop
  endfacet
  facet normal -0.365336 -0.930876 0
    outer loop
      vertex -0.411286 -0.911506 0
      vertex -0.318486 -0.947927 10
      vertex -0.411286 -0.911506 10
    endloop
  endfacet
  facet normal -0.365336 -0.930876 -0
    outer loop
      vertex -0.318486 -0.947927 10
      vertex -0.411286 -0.911506 0
      vertex -0.318486 -0.947927 0
    endloop
  endfacet
  facet normal -0.698237 -0.715867 0
    outer loop
      vertex -0.733051 -0.680172 0
      vertex -0.661685 -0.749781 10
      vertex -0.733051 -0.680172 10
    endloop
  endfacet
  facet normal -0.698237 -0.715867 -0
    outer loop
      vertex -0.661685 -0.749781 10
      vertex -0.733051 -0.680172 0
      vertex -0.661685 -0.749781 0
    endloop
  endfacet
  facet normal -0.921476 -0.388436 0
    outer loop
      vertex -0.900969 -0.433884 0
      vertex -0.939692 -0.34202 10
      vertex -0.939692 -0.34202 0
    endloop
  endfacet
  facet normal -0.921476 -0.388436 0
    outer loop
      vertex -0.939692 -0.34202 10
      vertex -0.900969 -0.433884 0
      vertex -0.900969 -0.433884 10
    endloop
  endfacet
  facet normal -0.955574 -0.294753 0
    outer loop
      vertex -0.939692 -0.34202 0
      vertex -0.969077 -0.246757 10
      vertex -0.969077 -0.246757 0
    endloop
  endfacet
  facet normal -0.955574 -0.294753 0
    outer loop
      vertex -0.969077 -0.246757 10
      vertex -0.939692 -0.34202 0
      vertex -0.939692 -0.34202 10
    endloop
  endfacet
  facet normal -0.980172 -0.198147 0
    outer loop
      vertex -0.969077 -0.246757 0
      vertex -0.988831 -0.149042 10
      vertex -0.988831 -0.149042 0
    endloop
  endfacet
  facet normal -0.980172 -0.198147 0
    outer loop
      vertex -0.988831 -0.149042 10
      vertex -0.969077 -0.246757 0
      vertex -0.969077 -0.246757 10
    endloop
  endfacet
  facet normal -0.995031 -0.0995653 0
    outer loop
      vertex -0.988831 -0.149042 0
      vertex -0.998756 -0.0498457 10
      vertex -0.998756 -0.0498457 0
    endloop
  endfacet
  facet normal -0.995031 -0.0995653 0
    outer loop
      vertex -0.998756 -0.0498457 10
      vertex -0.988831 -0.149042 0
      vertex -0.988831 -0.149042 10
    endloop
  endfacet
  facet normal 0.318488 -0.947927 0
    outer loop
      vertex 0.27084 -0.962624 0
      vertex 0.36534 -0.930873 10
      vertex 0.27084 -0.962624 10
    endloop
  endfacet
  facet normal 0.318488 -0.947927 0
    outer loop
      vertex 0.36534 -0.930873 10
      vertex 0.27084 -0.962624 0
      vertex 0.36534 -0.930873 0
    endloop
  endfacet
  facet normal -0.62349 -0.781831 0
    outer loop
      vertex -0.661685 -0.749781 0
      vertex -0.583743 -0.811937 10
      vertex -0.661685 -0.749781 10
    endloop
  endfacet
  facet normal -0.62349 -0.781831 -0
    outer loop
      vertex -0.583743 -0.811937 10
      vertex -0.661685 -0.749781 0
      vertex -0.583743 -0.811937 0
    endloop
  endfacet
  facet normal -0.456214 -0.88987 0
    outer loop
      vertex -0.499999 -0.866025 0
      vertex -0.411286 -0.911506 10
      vertex -0.499999 -0.866025 10
    endloop
  endfacet
  facet normal -0.456214 -0.88987 -0
    outer loop
      vertex -0.411286 -0.911506 10
      vertex -0.499999 -0.866025 0
      vertex -0.411286 -0.911506 0
    endloop
  endfacet
  facet normal -0.542546 -0.840026 0
    outer loop
      vertex -0.583743 -0.811937 0
      vertex -0.499999 -0.866025 10
      vertex -0.583743 -0.811937 10
    endloop
  endfacet
  facet normal -0.542546 -0.840026 -0
    outer loop
      vertex -0.499999 -0.866025 10
      vertex -0.583743 -0.811937 0
      vertex -0.499999 -0.866025 0
    endloop
  endfacet
  facet normal -0.173645 -0.984808 0
    outer loop
      vertex -0.222521 -0.974928 0
      vertex -0.124343 -0.992239 10
      vertex -0.222521 -0.974928 10
    endloop
  endfacet
  facet normal -0.173645 -0.984808 -0
    outer loop
      vertex -0.124343 -0.992239 10
      vertex -0.222521 -0.974928 0
      vertex -0.124343 -0.992239 0
    endloop
  endfacet
  facet normal -0.270849 -0.962622 0
    outer loop
      vertex -0.318486 -0.947927 0
      vertex -0.222521 -0.974928 10
      vertex -0.318486 -0.947927 10
    endloop
  endfacet
  facet normal -0.270849 -0.962622 -0
    outer loop
      vertex -0.222521 -0.974928 10
      vertex -0.318486 -0.947927 0
      vertex -0.222521 -0.974928 0
    endloop
  endfacet
  facet normal -0.826239 -0.56332 0
    outer loop
      vertex -0.797132 -0.603804 0
      vertex -0.853291 -0.521435 10
      vertex -0.853291 -0.521435 0
    endloop
  endfacet
  facet normal -0.826239 -0.56332 0
    outer loop
      vertex -0.853291 -0.521435 10
      vertex -0.797132 -0.603804 0
      vertex -0.797132 -0.603804 10
    endloop
  endfacet
  facet normal -0.878221 -0.478255 0
    outer loop
      vertex -0.853291 -0.521435 0
      vertex -0.900969 -0.433884 10
      vertex -0.900969 -0.433884 0
    endloop
  endfacet
  facet normal -0.878221 -0.478255 0
    outer loop
      vertex -0.900969 -0.433884 10
      vertex -0.853291 -0.521435 0
      vertex -0.853291 -0.521435 10
    endloop
  endfacet
  facet normal -0.766042 -0.642791 0
    outer loop
      vertex -0.733051 -0.680172 0
      vertex -0.797132 -0.603804 10
      vertex -0.797132 -0.603804 0
    endloop
  endfacet
  facet normal -0.766042 -0.642791 0
    outer loop
      vertex -0.797132 -0.603804 10
      vertex -0.733051 -0.680172 0
      vertex -0.733051 -0.680172 10
    endloop
  endfacet
  facet normal -0.998103 -0.0615597 0
    outer loop
      vertex 0.799999 0 0
      vertex 0.793936 0.0983105 10
      vertex 0.793936 0.0983105 0
    endloop
  endfacet
  facet normal -0.998103 -0.0615597 0
    outer loop
      vertex 0.793936 0.0983105 10
      vertex 0.799999 0 0
      vertex 0.799999 0 10
    endloop
  endfacet
  facet normal 1 -0 0
    outer loop
      vertex -0.798482 -0.0492487 10
      vertex -0.798482 0.0492487 0
      vertex -0.798482 0.0492487 10
    endloop
  endfacet
  facet normal 1 0 0
    outer loop
      vertex -0.798482 0.0492487 0
      vertex -0.798482 -0.0492487 10
      vertex -0.798482 -0.0492487 0
    endloop
  endfacet
  facet normal 0.0922615 -0.995735 0
    outer loop
      vertex -0.122713 0.790532 0
      vertex -0.0246353 0.79962 10
      vertex -0.122713 0.790532 10
    endloop
  endfacet
  facet normal 0.0922615 -0.995735 0
    outer loop
      vertex -0.0246353 0.79962 10
      vertex -0.122713 0.790532 0
      vertex -0.0246353 0.79962 0
    endloop
  endfacet
  facet normal -0.69614 -0.717906 0
    outer loop
      vertex 0.520494 0.607524 0
      vertex 0.591207 0.538956 10
      vertex 0.520494 0.607524 10
    endloop
  endfacet
  facet normal -0.69614 -0.717906 -0
    outer loop
      vertex 0.591207 0.538956 10
      vertex 0.520494 0.607524 0
      vertex 0.591207 0.538956 0
    endloop
  endfacet
  facet normal 0.73901 -0.673694 0
    outer loop
      vertex -0.623264 0.501538 10
      vertex -0.556907 0.574329 0
      vertex -0.556907 0.574329 10
    endloop
  endfacet
  facet normal 0.73901 -0.673694 0
    outer loop
      vertex -0.556907 0.574329 0
      vertex -0.623264 0.501538 10
      vertex -0.623264 0.501538 0
    endloop
  endfacet
  facet normal 0.445741 -0.895162 0
    outer loop
      vertex -0.4 0.69282 0
      vertex -0.311829 0.736724 10
      vertex -0.4 0.69282 10
    endloop
  endfacet
  facet normal 0.445741 -0.895162 0
    outer loop
      vertex -0.311829 0.736724 10
      vertex -0.4 0.69282 0
      vertex -0.311829 0.736724 0
    endloop
  endfacet
  facet normal -0.908464 0.417963 0
    outer loop
      vertex 0.704809 -0.378474 0
      vertex 0.745977 -0.288993 10
      vertex 0.745977 -0.288993 0
    endloop
  endfacet
  facet normal -0.908464 0.417963 0
    outer loop
      vertex 0.745977 -0.288993 10
      vertex 0.704809 -0.378474 0
      vertex 0.704809 -0.378474 10
    endloop
  endfacet
  facet normal 0.969796 0.243916 0
    outer loop
      vertex -0.762353 -0.242521 10
      vertex -0.786378 -0.146999 0
      vertex -0.786378 -0.146999 10
    endloop
  endfacet
  facet normal 0.969796 0.243916 0
    outer loop
      vertex -0.786378 -0.146999 0
      vertex -0.762353 -0.242521 10
      vertex -0.762353 -0.242521 0
    endloop
  endfacet
  facet normal -0.908464 -0.417963 0
    outer loop
      vertex 0.745977 0.288993 0
      vertex 0.704809 0.378474 10
      vertex 0.704809 0.378474 0
    endloop
  endfacet
  facet normal -0.908464 -0.417963 0
    outer loop
      vertex 0.704809 0.378474 10
      vertex 0.745977 0.288993 0
      vertex 0.745977 0.288993 10
    endloop
  endfacet
  facet normal -0.850217 -0.526433 0
    outer loop
      vertex 0.704809 0.378474 0
      vertex 0.652957 0.462218 10
      vertex 0.652957 0.462218 0
    endloop
  endfacet
  facet normal -0.850217 -0.526433 0
    outer loop
      vertex 0.652957 0.462218 10
      vertex 0.704809 0.378474 0
      vertex 0.704809 0.378474 10
    endloop
  endfacet
  facet normal -0.389787 -0.920905 0
    outer loop
      vertex 0.265883 0.754523 0
      vertex 0.35659 0.71613 10
      vertex 0.265883 0.754523 10
    endloop
  endfacet
  facet normal -0.389787 -0.920905 -0
    outer loop
      vertex 0.35659 0.71613 10
      vertex 0.265883 0.754523 0
      vertex 0.35659 0.71613 0
    endloop
  endfacet
  facet normal -0.499999 -0.866026 0
    outer loop
      vertex 0.35659 0.71613 0
      vertex 0.441892 0.666882 10
      vertex 0.35659 0.71613 10
    endloop
  endfacet
  facet normal -0.499999 -0.866026 -0
    outer loop
      vertex 0.441892 0.666882 10
      vertex 0.35659 0.71613 0
      vertex 0.441892 0.666882 0
    endloop
  endfacet
  facet normal 0.881013 -0.473092 0
    outer loop
      vertex -0.726771 0.334368 10
      vertex -0.680173 0.421145 0
      vertex -0.680173 0.421145 10
    endloop
  endfacet
  facet normal 0.881013 -0.473092 0
    outer loop
      vertex -0.680173 0.421145 0
      vertex -0.726771 0.334368 10
      vertex -0.726771 0.334368 0
    endloop
  endfacet
  facet normal 0.816198 -0.577772 0
    outer loop
      vertex -0.680173 0.421145 10
      vertex -0.623264 0.501538 0
      vertex -0.623264 0.501538 10
    endloop
  endfacet
  facet normal 0.816198 -0.577772 0
    outer loop
      vertex -0.623264 0.501538 0
      vertex -0.680173 0.421145 10
      vertex -0.680173 0.421145 0
    endloop
  endfacet
  facet normal 0.969796 -0.243916 0
    outer loop
      vertex -0.786378 0.146999 10
      vertex -0.762353 0.242521 0
      vertex -0.762353 0.242521 10
    endloop
  endfacet
  facet normal 0.969796 -0.243916 0
    outer loop
      vertex -0.762353 0.242521 0
      vertex -0.786378 0.146999 10
      vertex -0.786378 0.146999 0
    endloop
  endfacet
  facet normal 0.650617 -0.759406 0
    outer loop
      vertex -0.556907 0.574329 0
      vertex -0.482107 0.638413 10
      vertex -0.556907 0.574329 10
    endloop
  endfacet
  facet normal 0.650617 -0.759406 0
    outer loop
      vertex -0.482107 0.638413 10
      vertex -0.556907 0.574329 0
      vertex -0.482107 0.638413 0
    endloop
  endfacet
  facet normal 0.332352 -0.943155 0
    outer loop
      vertex -0.311829 0.736724 0
      vertex -0.21893 0.76946 10
      vertex -0.311829 0.736724 10
    endloop
  endfacet
  facet normal 0.332352 -0.943155 0
    outer loop
      vertex -0.21893 0.76946 10
      vertex -0.311829 0.736724 0
      vertex -0.21893 0.76946 0
    endloop
  endfacet
  facet normal -0.389787 0.920905 0
    outer loop
      vertex 0.35659 -0.71613 0
      vertex 0.265883 -0.754523 10
      vertex 0.35659 -0.71613 10
    endloop
  endfacet
  facet normal -0.389787 0.920905 0
    outer loop
      vertex 0.265883 -0.754523 10
      vertex 0.35659 -0.71613 0
      vertex 0.265883 -0.754523 0
    endloop
  endfacet
  facet normal -0.77908 0.626924 0
    outer loop
      vertex 0.591207 -0.538956 0
      vertex 0.652957 -0.462218 10
      vertex 0.652957 -0.462218 0
    endloop
  endfacet
  facet normal -0.77908 0.626924 0
    outer loop
      vertex 0.652957 -0.462218 10
      vertex 0.591207 -0.538956 0
      vertex 0.591207 -0.538956 10
    endloop
  endfacet
  facet normal -0.602632 0.798019 0
    outer loop
      vertex 0.520494 -0.607524 0
      vertex 0.441892 -0.666882 10
      vertex 0.520494 -0.607524 10
    endloop
  endfacet
  facet normal -0.602632 0.798019 0
    outer loop
      vertex 0.441892 -0.666882 10
      vertex 0.520494 -0.607524 0
      vertex 0.441892 -0.666882 0
    endloop
  endfacet
  facet normal 0.650617 0.759406 -0
    outer loop
      vertex -0.482107 -0.638413 0
      vertex -0.556907 -0.574329 10
      vertex -0.482107 -0.638413 10
    endloop
  endfacet
  facet normal 0.650617 0.759406 0
    outer loop
      vertex -0.556907 -0.574329 10
      vertex -0.482107 -0.638413 0
      vertex -0.556907 -0.574329 0
    endloop
  endfacet
  facet normal 0.332352 0.943155 -0
    outer loop
      vertex -0.21893 -0.76946 0
      vertex -0.311829 -0.736724 10
      vertex -0.21893 -0.76946 10
    endloop
  endfacet
  facet normal 0.332352 0.943155 0
    outer loop
      vertex -0.311829 -0.736724 10
      vertex -0.21893 -0.76946 0
      vertex -0.311829 -0.736724 0
    endloop
  endfacet
  facet normal 0.73901 0.673694 0
    outer loop
      vertex -0.556907 -0.574329 10
      vertex -0.623264 -0.501538 0
      vertex -0.623264 -0.501538 10
    endloop
  endfacet
  facet normal 0.73901 0.673694 0
    outer loop
      vertex -0.623264 -0.501538 0
      vertex -0.556907 -0.574329 10
      vertex -0.556907 -0.574329 0
    endloop
  endfacet
  facet normal 0.992421 0.122887 0
    outer loop
      vertex -0.786378 -0.146999 10
      vertex -0.798482 -0.0492487 0
      vertex -0.798482 -0.0492487 10
    endloop
  endfacet
  facet normal 0.992421 0.122887 0
    outer loop
      vertex -0.798482 -0.0492487 0
      vertex -0.786378 -0.146999 10
      vertex -0.786378 -0.146999 0
    endloop
  endfacet
  facet normal -0.952943 -0.30315 0
    outer loop
      vertex 0.775837 0.19513 0
      vertex 0.745977 0.288993 10
      vertex 0.745977 0.288993 0
    endloop
  endfacet
  facet normal -0.952943 -0.30315 0
    outer loop
      vertex 0.745977 0.288993 10
      vertex 0.775837 0.19513 0
      vertex 0.775837 0.19513 10
    endloop
  endfacet
  facet normal -0.982973 -0.18375 0
    outer loop
      vertex 0.793936 0.0983105 0
      vertex 0.775837 0.19513 10
      vertex 0.775837 0.19513 0
    endloop
  endfacet
  facet normal -0.982973 -0.18375 0
    outer loop
      vertex 0.775837 0.19513 10
      vertex 0.793936 0.0983105 0
      vertex 0.793936 0.0983105 10
    endloop
  endfacet
  facet normal -0.153395 -0.988165 0
    outer loop
      vertex 0.0738144 0.796587 0
      vertex 0.171146 0.781478 10
      vertex 0.0738144 0.796587 10
    endloop
  endfacet
  facet normal -0.153395 -0.988165 -0
    outer loop
      vertex 0.171146 0.781478 10
      vertex 0.0738144 0.796587 0
      vertex 0.171146 0.781478 0
    endloop
  endfacet
  facet normal -0.0307898 -0.999526 0
    outer loop
      vertex -0.0246353 0.79962 0
      vertex 0.0738144 0.796587 10
      vertex -0.0246353 0.79962 10
    endloop
  endfacet
  facet normal -0.0307898 -0.999526 -0
    outer loop
      vertex 0.0738144 0.796587 10
      vertex -0.0246353 0.79962 0
      vertex 0.0738144 0.796587 0
    endloop
  endfacet
  facet normal -0.602632 -0.798019 0
    outer loop
      vertex 0.441892 0.666882 0
      vertex 0.520494 0.607524 10
      vertex 0.441892 0.666882 10
    endloop
  endfacet
  facet normal -0.602632 -0.798019 -0
    outer loop
      vertex 0.520494 0.607524 10
      vertex 0.441892 0.666882 0
      vertex 0.520494 0.607524 0
    endloop
  endfacet
  facet normal 0.932472 -0.361242 0
    outer loop
      vertex -0.762353 0.242521 10
      vertex -0.726771 0.334368 0
      vertex -0.726771 0.334368 10
    endloop
  endfacet
  facet normal 0.932472 -0.361242 0
    outer loop
      vertex -0.726771 0.334368 0
      vertex -0.762353 0.242521 10
      vertex -0.762353 0.242521 0
    endloop
  endfacet
  facet normal 0.992421 -0.122887 0
    outer loop
      vertex -0.798482 0.0492487 10
      vertex -0.786378 0.146999 0
      vertex -0.786378 0.146999 10
    endloop
  endfacet
  facet normal 0.992421 -0.122887 0
    outer loop
      vertex -0.786378 0.146999 0
      vertex -0.798482 0.0492487 10
      vertex -0.798482 0.0492487 0
    endloop
  endfacet
  facet normal 0.213938 -0.976847 0
    outer loop
      vertex -0.21893 0.76946 0
      vertex -0.122713 0.790532 10
      vertex -0.21893 0.76946 10
    endloop
  endfacet
  facet normal 0.213938 -0.976847 0
    outer loop
      vertex -0.122713 0.790532 10
      vertex -0.21893 0.76946 0
      vertex -0.122713 0.790532 0
    endloop
  endfacet
  facet normal -0.982973 0.18375 0
    outer loop
      vertex 0.775837 -0.19513 0
      vertex 0.793936 -0.0983105 10
      vertex 0.793936 -0.0983105 0
    endloop
  endfacet
  facet normal -0.982973 0.18375 0
    outer loop
      vertex 0.793936 -0.0983105 10
      vertex 0.775837 -0.19513 0
      vertex 0.775837 -0.19513 10
    endloop
  endfacet
  facet normal -0.998103 0.0615597 0
    outer loop
      vertex 0.793936 -0.0983105 0
      vertex 0.799999 0 10
      vertex 0.799999 0 0
    endloop
  endfacet
  facet normal -0.998103 0.0615597 0
    outer loop
      vertex 0.799999 0 10
      vertex 0.793936 -0.0983105 0
      vertex 0.793936 -0.0983105 10
    endloop
  endfacet
  facet normal -0.153395 0.988165 0
    outer loop
      vertex 0.171146 -0.781478 0
      vertex 0.0738144 -0.796587 10
      vertex 0.171146 -0.781478 10
    endloop
  endfacet
  facet normal -0.153395 0.988165 0
    outer loop
      vertex 0.0738144 -0.796587 10
      vertex 0.171146 -0.781478 0
      vertex 0.0738144 -0.796587 0
    endloop
  endfacet
  facet normal -0.69614 0.717906 0
    outer loop
      vertex 0.591207 -0.538956 0
      vertex 0.520494 -0.607524 10
      vertex 0.591207 -0.538956 10
    endloop
  endfacet
  facet normal -0.69614 0.717906 0
    outer loop
      vertex 0.520494 -0.607524 10
      vertex 0.591207 -0.538956 0
      vertex 0.520494 -0.607524 0
    endloop
  endfacet
  facet normal -0.850217 0.526433 0
    outer loop
      vertex 0.652957 -0.462218 0
      vertex 0.704809 -0.378474 10
      vertex 0.704809 -0.378474 0
    endloop
  endfacet
  facet normal -0.850217 0.526433 0
    outer loop
      vertex 0.704809 -0.378474 10
      vertex 0.652957 -0.462218 0
      vertex 0.652957 -0.462218 10
    endloop
  endfacet
  facet normal 0.552363 0.833604 -0
    outer loop
      vertex -0.4 -0.69282 0
      vertex -0.482107 -0.638413 10
      vertex -0.4 -0.69282 10
    endloop
  endfacet
  facet normal 0.552363 0.833604 0
    outer loop
      vertex -0.482107 -0.638413 10
      vertex -0.4 -0.69282 0
      vertex -0.482107 -0.638413 0
    endloop
  endfacet
  facet normal 0.0922615 0.995735 -0
    outer loop
      vertex -0.0246353 -0.79962 0
      vertex -0.122713 -0.790532 10
      vertex -0.0246353 -0.79962 10
    endloop
  endfacet
  facet normal 0.0922615 0.995735 0
    outer loop
      vertex -0.122713 -0.790532 10
      vertex -0.0246353 -0.79962 0
      vertex -0.122713 -0.790532 0
    endloop
  endfacet
  facet normal 0.881013 0.473092 0
    outer loop
      vertex -0.680173 -0.421145 10
      vertex -0.726771 -0.334368 0
      vertex -0.726771 -0.334368 10
    endloop
  endfacet
  facet normal 0.881013 0.473092 0
    outer loop
      vertex -0.726771 -0.334368 0
      vertex -0.680173 -0.421145 10
      vertex -0.680173 -0.421145 0
    endloop
  endfacet
  facet normal -0.77908 -0.626924 0
    outer loop
      vertex 0.652957 0.462218 0
      vertex 0.591207 0.538956 10
      vertex 0.591207 0.538956 0
    endloop
  endfacet
  facet normal -0.77908 -0.626924 0
    outer loop
      vertex 0.591207 0.538956 10
      vertex 0.652957 0.462218 0
      vertex 0.652957 0.462218 10
    endloop
  endfacet
  facet normal -0.27366 -0.961827 0
    outer loop
      vertex 0.171146 0.781478 0
      vertex 0.265883 0.754523 10
      vertex 0.171146 0.781478 10
    endloop
  endfacet
  facet normal -0.27366 -0.961827 -0
    outer loop
      vertex 0.265883 0.754523 10
      vertex 0.171146 0.781478 0
      vertex 0.265883 0.754523 0
    endloop
  endfacet
  facet normal 0.552363 -0.833604 0
    outer loop
      vertex -0.482107 0.638413 0
      vertex -0.4 0.69282 10
      vertex -0.482107 0.638413 10
    endloop
  endfacet
  facet normal 0.552363 -0.833604 0
    outer loop
      vertex -0.4 0.69282 10
      vertex -0.482107 0.638413 0
      vertex -0.4 0.69282 0
    endloop
  endfacet
  facet normal -0.952943 0.30315 0
    outer loop
      vertex 0.745977 -0.288993 0
      vertex 0.775837 -0.19513 10
      vertex 0.775837 -0.19513 0
    endloop
  endfacet
  facet normal -0.952943 0.30315 0
    outer loop
      vertex 0.775837 -0.19513 10
      vertex 0.745977 -0.288993 0
      vertex 0.745977 -0.288993 10
    endloop
  endfacet
  facet normal -0.27366 0.961827 0
    outer loop
      vertex 0.265883 -0.754523 0
      vertex 0.171146 -0.781478 10
      vertex 0.265883 -0.754523 10
    endloop
  endfacet
  facet normal -0.27366 0.961827 0
    outer loop
      vertex 0.171146 -0.781478 10
      vertex 0.265883 -0.754523 0
      vertex 0.171146 -0.781478 0
    endloop
  endfacet
  facet normal -0.499999 0.866026 0
    outer loop
      vertex 0.441892 -0.666882 0
      vertex 0.35659 -0.71613 10
      vertex 0.441892 -0.666882 10
    endloop
  endfacet
  facet normal -0.499999 0.866026 0
    outer loop
      vertex 0.35659 -0.71613 10
      vertex 0.441892 -0.666882 0
      vertex 0.35659 -0.71613 0
    endloop
  endfacet
  facet normal 0.445741 0.895162 -0
    outer loop
      vertex -0.311829 -0.736724 0
      vertex -0.4 -0.69282 10
      vertex -0.311829 -0.736724 10
    endloop
  endfacet
  facet normal 0.445741 0.895162 0
    outer loop
      vertex -0.4 -0.69282 10
      vertex -0.311829 -0.736724 0
      vertex -0.4 -0.69282 0
    endloop
  endfacet
  facet normal 0.213938 0.976847 -0
    outer loop
      vertex -0.122713 -0.790532 0
      vertex -0.21893 -0.76946 10
      vertex -0.122713 -0.790532 10
    endloop
  endfacet
  facet normal 0.213938 0.976847 0
    outer loop
      vertex -0.21893 -0.76946 10
      vertex -0.122713 -0.790532 0
      vertex -0.21893 -0.76946 0
    endloop
  endfacet
  facet normal -0.0307898 0.999526 0
    outer loop
      vertex 0.0738144 -0.796587 0
      vertex -0.0246353 -0.79962 10
      vertex 0.0738144 -0.796587 10
    endloop
  endfacet
  facet normal -0.0307898 0.999526 0
    outer loop
      vertex -0.0246353 -0.79962 10
      vertex 0.0738144 -0.796587 0
      vertex -0.0246353 -0.79962 0
    endloop
  endfacet
  facet normal 0.816198 0.577772 0
    outer loop
      vertex -0.623264 -0.501538 10
      vertex -0.680173 -0.421145 0
      vertex -0.680173 -0.421145 10
    endloop
  endfacet
  facet normal 0.816198 0.577772 0
    outer loop
      vertex -0.680173 -0.421145 0
      vertex -0.623264 -0.501538 10
      vertex -0.623264 -0.501538 0
    endloop
  endfacet
  facet normal 0.932472 0.361242 0
    outer loop
      vertex -0.726771 -0.334368 10
      vertex -0.762353 -0.242521 0
      vertex -0.762353 -0.242521 10
    endloop
  endfacet
  facet normal 0.932472 0.361242 0
    outer loop
      vertex -0.762353 -0.242521 0
      vertex -0.726771 -0.334368 10
      vertex -0.726771 -0.334368 0
    endloop
  endfacet
endsolid OpenSCAD_Model
